<svg width="500" height="500" viewBox="0 0 500 500" fill="none" xmlns="http://www.w3.org/2000/svg">
<path d="M468.505 284.161C453.783 323.594 423.701 366.273 381.37 378.909C317.409 398.007 309.768 449.564 195.207 444.782C177.345 444.038 160.836 441.527 145.669 437.518C137.516 435.364 129.749 432.765 122.378 429.771C55.4522 402.663 20.5402 343.001 17.6422 280.577C13.8162 198.475 71.1022 159.341 108.332 136.427C145.563 113.513 190.434 24.7261 303.092 28.5411C320.268 29.1301 337.405 31.4781 354.011 35.9791C391.918 46.2381 430.452 68.93 452.845 102.103C454.526 104.595 456.129 107.146 457.665 109.744C487.632 160.587 488.579 230.402 468.505 284.161Z" fill="#92E3A9"/>
<path opacity="0.7" d="M468.505 284.161C453.783 323.594 423.701 366.273 381.37 378.909C317.409 398.007 309.768 449.564 195.207 444.782C177.345 444.038 160.836 441.527 145.669 437.518C137.516 435.364 129.749 432.765 122.378 429.771C55.4522 402.663 20.5402 343.001 17.6422 280.577C13.8162 198.475 71.1022 159.341 108.332 136.427C145.563 113.513 190.434 24.7261 303.092 28.5411C320.268 29.1301 337.405 31.4781 354.011 35.9791C391.918 46.2381 430.452 68.93 452.845 102.103C454.526 104.595 456.129 107.146 457.665 109.744C487.632 160.587 488.579 230.402 468.505 284.161Z" fill="white"/>
<path d="M381.087 325.645L381.255 315.925H383.091L384.471 322.657L385.911 315.925H387.686L387.866 325.645H386.547L386.402 318.889L385.022 325.645H383.955L382.551 318.866L382.419 325.645H381.087Z" fill="#263238"/>
<path d="M388.813 325.645L390.757 315.925H392.653L394.597 325.645H392.952L392.568 323.401H390.877L390.481 325.645H388.813ZM391.058 322.272H392.378L391.718 318.192L391.058 322.272Z" fill="#263238"/>
<path d="M395.521 325.645V315.925H397.849C398.505 315.925 399.059 316.003 399.511 316.159C399.963 316.314 400.307 316.581 400.543 316.957C400.778 317.333 400.896 317.845 400.896 318.493C400.896 318.885 400.86 319.236 400.789 319.549C400.717 319.861 400.595 320.127 400.423 320.347C400.251 320.568 400.013 320.737 399.709 320.857L401.064 325.645H399.289L398.113 321.193H397.297V325.645H395.521ZM397.298 320.077H397.85C398.194 320.077 398.468 320.027 398.672 319.927C398.876 319.827 399.022 319.667 399.11 319.447C399.198 319.227 399.243 318.946 399.243 318.601C399.243 318.114 399.152 317.748 398.972 317.503C398.792 317.259 398.451 317.137 397.946 317.137H397.299L397.298 320.077Z" fill="#263238"/>
<path d="M402.229 325.645V315.925H404.004V320.196L405.925 315.925H407.616L405.756 320.269L407.809 325.645H406.044L404.412 321.217L404.004 321.961V325.645H402.229Z" fill="#263238"/>
<path d="M408.507 325.645V315.925H412.587V317.173H410.282V319.969H412.095V321.205H410.282V324.421H412.61V325.645H408.507Z" fill="#263238"/>
<path d="M414.614 325.645V317.233H413.066V315.925H417.914V317.233H416.391V325.645H414.614Z" fill="#263238"/>
<path d="M421.251 325.776C420.666 325.776 420.179 325.663 419.786 325.434C419.394 325.206 419.098 324.872 418.898 324.432C418.698 323.993 418.587 323.453 418.562 322.812L420.086 322.512C420.102 322.888 420.147 323.22 420.224 323.508C420.3 323.796 420.416 324.018 420.572 324.174C420.728 324.33 420.934 324.408 421.19 324.408C421.478 324.408 421.682 324.322 421.802 324.149C421.922 323.977 421.982 323.759 421.982 323.496C421.982 323.072 421.886 322.724 421.694 322.452C421.503 322.18 421.246 321.908 420.927 321.636L419.702 320.556C419.358 320.26 419.085 319.93 418.881 319.566C418.677 319.203 418.574 318.752 418.574 318.216C418.574 317.448 418.799 316.856 419.246 316.44C419.694 316.024 420.306 315.816 421.083 315.816C421.538 315.816 421.918 315.886 422.223 316.026C422.527 316.167 422.769 316.361 422.948 316.608C423.129 316.856 423.263 317.138 423.35 317.455C423.438 317.77 423.493 318.104 423.518 318.457L422.006 318.721C421.989 318.417 421.955 318.145 421.904 317.905C421.852 317.666 421.76 317.477 421.629 317.341C421.496 317.205 421.303 317.137 421.047 317.137C420.782 317.137 420.58 317.223 420.441 317.395C420.301 317.568 420.23 317.782 420.23 318.038C420.23 318.366 420.299 318.636 420.435 318.848C420.571 319.06 420.767 319.279 421.023 319.502L422.234 320.569C422.634 320.905 422.976 321.299 423.26 321.752C423.543 322.204 423.687 322.75 423.687 323.39C423.687 323.854 423.585 324.266 423.381 324.626C423.177 324.985 422.893 325.268 422.528 325.472C422.164 325.675 421.738 325.776 421.251 325.776Z" fill="#263238"/>
<path d="M432.641 257.663H393.396V305.207H432.641V257.663Z" fill="#263238" stroke="#263238" stroke-miterlimit="10" stroke-linecap="round" stroke-linejoin="round"/>
<path d="M416.953 257.663H377.709V305.207H416.953V257.663Z" fill="white" stroke="#263238" stroke-miterlimit="10" stroke-linecap="round" stroke-linejoin="round"/>
<path d="M432.641 293.864H393.396V305.207H432.641V293.864Z" fill="white" stroke="#263238" stroke-miterlimit="10" stroke-linecap="round" stroke-linejoin="round"/>
<path d="M416.953 293.864H377.709V305.207H416.953V293.864Z" fill="white" stroke="#263238" stroke-miterlimit="10" stroke-linecap="round" stroke-linejoin="round"/>
<path d="M402.965 285.185H391.698V305.207H402.965V285.185Z" fill="white" stroke="#263238" stroke-miterlimit="10" stroke-linecap="round" stroke-linejoin="round"/>
<path d="M378.374 277.734H369.87L376.019 257.663H384.524L378.374 277.734Z" fill="white" stroke="#263238" stroke-miterlimit="10" stroke-linecap="round" stroke-linejoin="round"/>
<path d="M374.258 284.856H373.986C371.713 284.856 369.869 283.013 369.869 280.739V276.857H378.374V280.739C378.374 283.013 376.531 284.856 374.258 284.856Z" fill="white" stroke="#263238" stroke-miterlimit="10" stroke-linecap="round" stroke-linejoin="round"/>
<path d="M386.601 277.734H378.096L384.246 257.663H392.75L386.601 277.734Z" fill="#263238" stroke="#263238" stroke-miterlimit="10" stroke-linecap="round" stroke-linejoin="round"/>
<path d="M382.484 284.856H382.212C379.939 284.856 378.095 283.013 378.095 280.739V276.857H386.6V280.739C386.601 283.013 384.758 284.856 382.484 284.856Z" fill="#263238" stroke="#263238" stroke-miterlimit="10" stroke-linecap="round" stroke-linejoin="round"/>
<path d="M394.828 277.734H386.323L392.472 257.663H400.977L394.828 277.734Z" fill="white" stroke="#263238" stroke-miterlimit="10" stroke-linecap="round" stroke-linejoin="round"/>
<path d="M390.711 284.856H390.439C388.165 284.856 386.322 283.013 386.322 280.739V276.857H394.827V280.739C394.828 283.013 392.985 284.856 390.711 284.856Z" fill="white" stroke="#263238" stroke-miterlimit="10" stroke-linecap="round" stroke-linejoin="round"/>
<path d="M403.054 277.734H394.55L400.699 257.663H409.204L403.054 277.734Z" fill="#263238" stroke="#263238" stroke-miterlimit="10" stroke-linecap="round" stroke-linejoin="round"/>
<path d="M398.938 284.856H398.666C396.392 284.856 394.549 283.013 394.549 280.739V276.857H403.054V280.739C403.054 283.013 401.211 284.856 398.938 284.856Z" fill="#263238" stroke="#263238" stroke-miterlimit="10" stroke-linecap="round" stroke-linejoin="round"/>
<path d="M411.281 277.734H402.776L408.925 257.663H417.43L411.281 277.734Z" fill="white" stroke="#263238" stroke-miterlimit="10" stroke-linecap="round" stroke-linejoin="round"/>
<path d="M407.164 284.856H406.892C404.619 284.856 402.775 283.013 402.775 280.739V276.857H411.28V280.739C411.281 283.013 409.438 284.856 407.164 284.856Z" fill="white" stroke="#263238" stroke-miterlimit="10" stroke-linecap="round" stroke-linejoin="round"/>
<path d="M366.759 260.98L389.444 240.942L408.726 248.504L431.789 232.624" stroke="black" stroke-miterlimit="10" stroke-linecap="round" stroke-linejoin="round"/>
<path d="M431.789 234.514C432.833 234.514 433.679 233.668 433.679 232.624C433.679 231.58 432.833 230.734 431.789 230.734C430.746 230.734 429.899 231.58 429.899 232.624C429.899 233.668 430.746 234.514 431.789 234.514Z" fill="#263238" stroke="#263238" stroke-miterlimit="10" stroke-linecap="round" stroke-linejoin="round"/>
<path d="M409.104 250.394C410.148 250.394 410.994 249.548 410.994 248.504C410.994 247.46 410.148 246.614 409.104 246.614C408.06 246.614 407.214 247.46 407.214 248.504C407.214 249.548 408.06 250.394 409.104 250.394Z" fill="#263238" stroke="#263238" stroke-miterlimit="10" stroke-linecap="round" stroke-linejoin="round"/>
<path d="M389.444 242.832C390.488 242.832 391.334 241.986 391.334 240.942C391.334 239.898 390.488 239.052 389.444 239.052C388.4 239.052 387.554 239.898 387.554 240.942C387.554 241.986 388.4 242.832 389.444 242.832Z" fill="#263238" stroke="#263238" stroke-miterlimit="10" stroke-linecap="round" stroke-linejoin="round"/>
<path d="M366.759 262.87C367.803 262.87 368.649 262.024 368.649 260.98C368.649 259.936 367.803 259.09 366.759 259.09C365.715 259.09 364.869 259.936 364.869 260.98C364.869 262.024 365.715 262.87 366.759 262.87Z" fill="#263238" stroke="#263238" stroke-miterlimit="10" stroke-linecap="round" stroke-linejoin="round"/>
<path d="M388.718 210.854C388.005 210.854 387.448 210.714 387.043 210.434C386.64 210.154 386.357 209.772 386.197 209.288C386.037 208.804 385.957 208.246 385.957 207.614V204.146C385.957 203.482 386.037 202.906 386.197 202.418C386.357 201.93 386.639 201.554 387.043 201.29C387.447 201.026 388.005 200.894 388.718 200.894C389.39 200.894 389.915 201.008 390.295 201.236C390.675 201.464 390.945 201.79 391.106 202.214C391.266 202.638 391.346 203.13 391.346 203.689V204.505H389.642V203.665C389.642 203.394 389.627 203.145 389.6 202.921C389.572 202.697 389.496 202.519 389.372 202.387C389.248 202.255 389.034 202.189 388.73 202.189C388.425 202.189 388.204 202.259 388.064 202.4C387.923 202.54 387.834 202.728 387.794 202.964C387.754 203.2 387.734 203.466 387.734 203.762V207.986C387.734 208.338 387.762 208.628 387.818 208.856C387.874 209.084 387.976 209.256 388.124 209.372C388.272 209.488 388.475 209.546 388.731 209.546C389.027 209.546 389.237 209.476 389.361 209.336C389.485 209.196 389.563 209.01 389.595 208.778C389.626 208.546 389.643 208.286 389.643 207.998V207.122H391.347V207.902C391.347 208.478 391.271 208.988 391.118 209.432C390.966 209.876 390.7 210.224 390.32 210.476C389.94 210.728 389.406 210.854 388.718 210.854Z" fill="#263238"/>
<path d="M395.246 210.854C394.526 210.854 393.966 210.722 393.566 210.458C393.166 210.194 392.89 209.818 392.738 209.33C392.586 208.842 392.51 208.258 392.51 207.578V201.002H394.238V207.782C394.238 208.086 394.257 208.372 394.298 208.64C394.337 208.908 394.432 209.124 394.579 209.288C394.727 209.452 394.949 209.534 395.245 209.534C395.558 209.534 395.783 209.452 395.924 209.288C396.064 209.124 396.156 208.908 396.199 208.64C396.243 208.372 396.265 208.086 396.265 207.782V201.002H397.981V207.578C397.981 208.258 397.905 208.842 397.753 209.33C397.602 209.818 397.327 210.194 396.932 210.458C396.536 210.722 395.974 210.854 395.246 210.854Z" fill="#263238"/>
<path d="M401.822 210.854C401.238 210.854 400.75 210.74 400.358 210.512C399.965 210.284 399.669 209.95 399.47 209.51C399.27 209.07 399.157 208.53 399.134 207.89L400.657 207.59C400.673 207.966 400.718 208.298 400.795 208.586C400.871 208.874 400.987 209.096 401.144 209.252C401.3 209.408 401.505 209.486 401.762 209.486C402.05 209.486 402.253 209.4 402.373 209.228C402.493 209.056 402.554 208.838 402.554 208.574C402.554 208.15 402.457 207.802 402.266 207.53C402.074 207.258 401.818 206.986 401.498 206.714L400.274 205.634C399.93 205.338 399.656 205.008 399.452 204.644C399.248 204.28 399.146 203.83 399.146 203.294C399.146 202.526 399.37 201.934 399.818 201.518C400.266 201.102 400.878 200.894 401.654 200.894C402.11 200.894 402.49 200.964 402.794 201.104C403.099 201.244 403.341 201.439 403.521 201.686C403.701 201.934 403.834 202.216 403.922 202.532C404.011 202.848 404.067 203.182 404.091 203.534L402.578 203.798C402.562 203.494 402.528 203.222 402.476 202.982C402.423 202.742 402.331 202.554 402.2 202.418C402.068 202.282 401.874 202.214 401.618 202.214C401.354 202.214 401.152 202.3 401.013 202.472C400.872 202.644 400.803 202.858 400.803 203.114C400.803 203.442 400.87 203.712 401.006 203.924C401.143 204.136 401.338 204.354 401.595 204.578L402.807 205.646C403.206 205.982 403.548 206.376 403.832 206.828C404.116 207.28 404.259 207.826 404.259 208.466C404.259 208.93 404.157 209.342 403.952 209.702C403.748 210.062 403.464 210.344 403.1 210.548C402.736 210.752 402.31 210.854 401.822 210.854Z" fill="#263238"/>
<path d="M406.274 210.722V202.31H404.725V201.002H409.574V202.31H408.05V210.722H406.274Z" fill="#263238"/>
<path d="M413.054 210.854C412.366 210.854 411.819 210.726 411.411 210.47C411.003 210.214 410.711 209.846 410.535 209.366C410.358 208.886 410.27 208.318 410.27 207.662V204.026C410.27 203.37 410.358 202.808 410.535 202.34C410.711 201.872 411.003 201.514 411.411 201.266C411.819 201.018 412.367 200.894 413.054 200.894C413.758 200.894 414.312 201.018 414.716 201.266C415.12 201.514 415.412 201.872 415.592 202.34C415.772 202.808 415.863 203.37 415.863 204.026V207.674C415.863 208.322 415.772 208.884 415.592 209.36C415.412 209.836 415.12 210.204 414.716 210.464C414.312 210.724 413.758 210.854 413.054 210.854ZM413.054 209.546C413.35 209.546 413.568 209.482 413.708 209.354C413.848 209.226 413.941 209.05 413.99 208.826C414.038 208.602 414.061 208.358 414.061 208.094V203.618C414.061 203.346 414.038 203.102 413.99 202.886C413.941 202.67 413.847 202.5 413.708 202.376C413.567 202.252 413.35 202.19 413.054 202.19C412.774 202.19 412.562 202.253 412.418 202.376C412.273 202.5 412.178 202.67 412.13 202.886C412.082 203.102 412.058 203.346 412.058 203.618V208.094C412.058 208.358 412.081 208.602 412.124 208.826C412.168 209.05 412.262 209.226 412.406 209.354C412.55 209.482 412.766 209.546 413.054 209.546Z" fill="#263238"/>
<path d="M417.145 210.722L417.313 201.002H419.149L420.529 207.734L421.969 201.002H423.745L423.925 210.722H422.605L422.461 203.966L421.081 210.722H420.013L418.609 203.942L418.477 210.722H417.145Z" fill="#263238"/>
<path d="M425.294 210.722V201.002H429.374V202.25H427.069V205.046H428.882V206.282H427.069V209.498H429.397V210.722H425.294Z" fill="#263238"/>
<path d="M430.429 210.722V201.002H432.757C433.413 201.002 433.967 201.08 434.419 201.236C434.871 201.392 435.215 201.658 435.451 202.034C435.686 202.41 435.805 202.922 435.805 203.57C435.805 203.962 435.769 204.314 435.698 204.626C435.626 204.938 435.504 205.204 435.332 205.424C435.16 205.644 434.922 205.814 434.618 205.934L435.973 210.722H434.198L433.022 206.27H432.206V210.722H430.429ZM432.206 205.154H432.758C433.102 205.154 433.376 205.104 433.58 205.004C433.784 204.904 433.93 204.744 434.018 204.524C434.106 204.304 434.151 204.023 434.151 203.678C434.151 203.19 434.06 202.824 433.88 202.58C433.7 202.336 433.359 202.214 432.854 202.214H432.207V205.154H432.206Z" fill="#263238"/>
<path d="M439.586 210.854C439.001 210.854 438.514 210.74 438.121 210.512C437.729 210.284 437.433 209.95 437.233 209.51C437.033 209.07 436.922 208.53 436.897 207.89L438.421 207.59C438.437 207.966 438.482 208.298 438.559 208.586C438.635 208.874 438.751 209.096 438.907 209.252C439.063 209.408 439.269 209.486 439.525 209.486C439.813 209.486 440.017 209.4 440.137 209.228C440.257 209.056 440.317 208.838 440.317 208.574C440.317 208.15 440.221 207.802 440.029 207.53C439.838 207.258 439.581 206.986 439.261 206.714L438.036 205.634C437.692 205.338 437.419 205.008 437.215 204.644C437.011 204.28 436.908 203.83 436.908 203.294C436.908 202.526 437.133 201.934 437.58 201.518C438.028 201.102 438.641 200.894 439.417 200.894C439.872 200.894 440.252 200.964 440.557 201.104C440.861 201.244 441.103 201.439 441.283 201.686C441.464 201.934 441.597 202.216 441.685 202.532C441.773 202.848 441.828 203.182 441.853 203.534L440.341 203.798C440.324 203.494 440.29 203.222 440.239 202.982C440.187 202.742 440.095 202.554 439.964 202.418C439.831 202.282 439.638 202.214 439.382 202.214C439.117 202.214 438.915 202.3 438.775 202.472C438.635 202.644 438.565 202.858 438.565 203.114C438.565 203.442 438.633 203.712 438.769 203.924C438.905 204.136 439.101 204.354 439.357 204.578L440.569 205.646C440.969 205.982 441.311 206.376 441.595 206.828C441.878 207.28 442.021 207.826 442.021 208.466C442.021 208.93 441.919 209.342 441.715 209.702C441.511 210.062 441.227 210.344 440.863 210.548C440.499 210.752 440.073 210.854 439.586 210.854Z" fill="#263238"/>
<path d="M423.515 141.383H399.889V164.416H423.515V141.383Z" fill="#263238" stroke="#263238" stroke-miterlimit="10" stroke-linecap="round" stroke-linejoin="round"/>
<path d="M436.998 190.543C436.932 176.628 425.659 165.367 411.756 165.367C407.454 165.367 403.404 166.445 399.859 168.347C391.949 172.59 386.559 180.934 386.513 190.543H436.998Z" fill="white" stroke="#263238" stroke-miterlimit="10" stroke-linecap="round" stroke-linejoin="round"/>
<path d="M419.895 166.737L412.327 169.178L403.989 166.737V156.574H419.895V166.737Z" fill="white" stroke="#263238" stroke-miterlimit="10" stroke-linecap="round" stroke-linejoin="round"/>
<path d="M423.994 143.802C423.994 144.195 423.994 144.573 423.979 144.952C423.677 157.565 418.338 162.677 411.744 162.677C405.165 162.677 399.781 158.503 399.524 144.907C399.509 144.559 399.509 144.181 399.509 143.803C399.509 136.029 404.999 129.738 411.744 129.738C418.52 129.737 423.994 136.028 423.994 143.802Z" fill="white" stroke="#263238" stroke-miterlimit="10" stroke-linecap="round" stroke-linejoin="round"/>
<path d="M423.994 143.802C423.994 144.195 423.994 144.573 423.979 144.952C413.287 141.594 412.636 131.658 412.636 131.658C412.636 131.658 408.159 142.865 399.524 144.906C399.509 144.558 399.509 144.18 399.509 143.802C399.509 136.028 404.999 129.737 411.744 129.737C418.52 129.737 423.994 136.028 423.994 143.802Z" fill="#263238" stroke="#263238" stroke-miterlimit="10" stroke-linecap="round" stroke-linejoin="round"/>
<path d="M294.093 120.086V110.366H296.385C297.177 110.366 297.795 110.474 298.239 110.69C298.682 110.906 298.999 111.238 299.187 111.686C299.375 112.134 299.468 112.702 299.468 113.39V116.942C299.468 117.646 299.374 118.232 299.187 118.7C298.998 119.168 298.687 119.516 298.251 119.744C297.815 119.972 297.217 120.086 296.457 120.086H294.093ZM295.869 118.85H296.409C296.817 118.85 297.109 118.778 297.285 118.634C297.461 118.49 297.569 118.28 297.609 118.004C297.649 117.728 297.668 117.39 297.668 116.99V113.27C297.668 112.878 297.64 112.562 297.584 112.322C297.528 112.082 297.412 111.907 297.236 111.794C297.059 111.682 296.776 111.626 296.383 111.626H295.867V118.85H295.869Z" fill="#263238"/>
<path d="M300.825 120.086V110.366H302.577V120.086H300.825Z" fill="#263238"/>
<path d="M306.525 120.218C305.94 120.218 305.453 120.104 305.06 119.876C304.668 119.648 304.372 119.314 304.172 118.874C303.972 118.434 303.86 117.894 303.836 117.254L305.36 116.954C305.376 117.33 305.422 117.662 305.498 117.95C305.574 118.238 305.69 118.46 305.846 118.616C306.002 118.772 306.208 118.85 306.464 118.85C306.752 118.85 306.956 118.764 307.076 118.592C307.196 118.42 307.256 118.202 307.256 117.938C307.256 117.514 307.16 117.166 306.968 116.894C306.777 116.622 306.52 116.35 306.2 116.078L304.975 114.998C304.631 114.702 304.358 114.372 304.154 114.008C303.95 113.644 303.847 113.194 303.847 112.658C303.847 111.89 304.072 111.298 304.519 110.882C304.967 110.466 305.58 110.258 306.356 110.258C306.811 110.258 307.191 110.328 307.496 110.468C307.8 110.608 308.042 110.802 308.222 111.05C308.403 111.298 308.536 111.58 308.624 111.896C308.712 112.212 308.768 112.546 308.792 112.898L307.28 113.162C307.263 112.858 307.229 112.586 307.177 112.346C307.125 112.106 307.034 111.918 306.902 111.782C306.769 111.646 306.576 111.578 306.32 111.578C306.055 111.578 305.853 111.664 305.713 111.836C305.573 112.008 305.503 112.222 305.503 112.478C305.503 112.806 305.571 113.076 305.707 113.288C305.843 113.5 306.039 113.718 306.295 113.942L307.507 115.01C307.907 115.346 308.249 115.74 308.533 116.192C308.816 116.644 308.959 117.19 308.959 117.83C308.959 118.294 308.857 118.706 308.653 119.066C308.449 119.426 308.165 119.708 307.8 119.912C307.439 120.116 307.013 120.218 306.525 120.218Z" fill="#263238"/>
<path d="M310.977 120.086V111.674H309.429V110.366H314.277V111.674H312.754V120.086H310.977Z" fill="#263238"/>
<path d="M315.165 120.086V110.366H317.493C318.148 110.366 318.703 110.444 319.155 110.6C319.606 110.756 319.951 111.022 320.186 111.398C320.422 111.774 320.54 112.286 320.54 112.934C320.54 113.326 320.504 113.678 320.432 113.99C320.361 114.302 320.239 114.568 320.066 114.788C319.894 115.008 319.657 115.178 319.352 115.298L320.709 120.086H318.933L317.757 115.634H316.941V120.086H315.165ZM316.94 114.518H317.493C317.837 114.518 318.111 114.468 318.314 114.368C318.518 114.268 318.665 114.108 318.752 113.888C318.84 113.668 318.884 113.386 318.884 113.042C318.884 112.554 318.794 112.188 318.614 111.944C318.433 111.7 318.092 111.578 317.588 111.578H316.94V114.518Z" fill="#263238"/>
<path d="M321.92 120.086V110.366H323.673V120.086H321.92Z" fill="#263238"/>
<path d="M325.173 120.086V110.366H327.561C327.993 110.366 328.383 110.407 328.731 110.486C329.08 110.566 329.379 110.7 329.631 110.888C329.883 111.076 330.076 111.33 330.213 111.65C330.349 111.97 330.417 112.374 330.417 112.862C330.417 113.254 330.362 113.59 330.255 113.87C330.147 114.15 329.988 114.372 329.78 114.536C329.572 114.7 329.312 114.81 329.001 114.866C329.385 114.93 329.703 115.064 329.955 115.268C330.207 115.472 330.394 115.738 330.519 116.066C330.643 116.394 330.705 116.79 330.705 117.254C330.705 117.718 330.646 118.128 330.53 118.484C330.415 118.84 330.242 119.136 330.014 119.372C329.786 119.608 329.502 119.786 329.162 119.906C328.821 120.026 328.424 120.086 327.968 120.086H325.173ZM326.948 114.338H327.549C327.901 114.338 328.173 114.286 328.364 114.182C328.556 114.078 328.69 113.918 328.766 113.702C328.842 113.486 328.88 113.214 328.88 112.886C328.88 112.542 328.821 112.276 328.706 112.088C328.59 111.9 328.416 111.772 328.184 111.704C327.951 111.636 327.656 111.602 327.296 111.602H326.947V114.338H326.948ZM326.948 118.838H327.621C328.156 118.838 328.52 118.708 328.713 118.448C328.904 118.188 329.001 117.786 329.001 117.242C329.001 116.85 328.954 116.533 328.862 116.288C328.77 116.044 328.618 115.862 328.406 115.742C328.194 115.622 327.913 115.562 327.56 115.562H326.948V118.838Z" fill="#263238"/>
<path d="M334.52 120.218C333.799 120.218 333.24 120.086 332.839 119.822C332.44 119.558 332.163 119.182 332.012 118.694C331.86 118.206 331.783 117.622 331.783 116.942V110.366H333.512V117.146C333.512 117.45 333.532 117.736 333.572 118.004C333.612 118.272 333.706 118.488 333.854 118.652C334.002 118.816 334.224 118.898 334.52 118.898C334.832 118.898 335.058 118.816 335.198 118.652C335.338 118.488 335.431 118.272 335.474 118.004C335.518 117.736 335.539 117.45 335.539 117.146V110.366H337.255V116.942C337.255 117.622 337.179 118.206 337.027 118.694C336.875 119.182 336.601 119.558 336.205 119.822C335.81 120.086 335.248 120.218 334.52 120.218Z" fill="#263238"/>
<path d="M339.62 120.086V111.674H338.072V110.366H342.92V111.674H341.397V120.086H339.62Z" fill="#263238"/>
<path d="M343.855 120.086V110.366H345.607V120.086H343.855Z" fill="#263238"/>
<path d="M349.748 120.218C349.06 120.218 348.513 120.09 348.105 119.834C347.697 119.578 347.405 119.21 347.229 118.73C347.052 118.25 346.964 117.682 346.964 117.026V113.39C346.964 112.734 347.052 112.172 347.229 111.704C347.405 111.236 347.697 110.878 348.105 110.63C348.513 110.382 349.061 110.258 349.748 110.258C350.452 110.258 351.006 110.382 351.41 110.63C351.814 110.878 352.106 111.236 352.286 111.704C352.466 112.172 352.556 112.734 352.556 113.39V117.038C352.556 117.686 352.465 118.248 352.286 118.724C352.106 119.2 351.814 119.568 351.41 119.828C351.006 120.088 350.452 120.218 349.748 120.218ZM349.748 118.91C350.044 118.91 350.262 118.846 350.402 118.718C350.542 118.59 350.635 118.414 350.684 118.19C350.732 117.966 350.755 117.722 350.755 117.458V112.982C350.755 112.71 350.732 112.466 350.684 112.25C350.635 112.034 350.541 111.864 350.402 111.74C350.261 111.617 350.044 111.554 349.748 111.554C349.468 111.554 349.256 111.617 349.112 111.74C348.967 111.865 348.872 112.035 348.824 112.25C348.776 112.466 348.752 112.71 348.752 112.982V117.458C348.752 117.722 348.774 117.966 348.818 118.19C348.862 118.414 348.956 118.59 349.1 118.718C349.244 118.846 349.46 118.91 349.748 118.91Z" fill="#263238"/>
<path d="M353.864 120.086V110.366H355.099L357.463 115.911V110.366H358.927V120.086H357.751L355.375 114.278V120.086H353.864Z" fill="#263238"/>
<path d="M313.28 105.508C317.599 105.508 321.101 102.006 321.101 97.687C321.101 93.3675 317.599 89.866 313.28 89.866C308.961 89.866 305.459 93.3675 305.459 97.687C305.459 102.006 308.961 105.508 313.28 105.508Z" fill="#263238" stroke="#263238" stroke-miterlimit="10" stroke-linecap="round" stroke-linejoin="round"/>
<path d="M357.67 105.508C361.989 105.508 365.491 102.006 365.491 97.687C365.491 93.3675 361.989 89.866 357.67 89.866C353.35 89.866 349.849 93.3675 349.849 97.687C349.849 102.006 353.35 105.508 357.67 105.508Z" fill="#263238" stroke="#263238" stroke-miterlimit="10" stroke-linecap="round" stroke-linejoin="round"/>
<path d="M308.475 97.492H283.594V82.371L292.367 72.723H308.475V97.492Z" fill="white" stroke="#263238" stroke-miterlimit="10" stroke-linecap="round" stroke-linejoin="round"/>
<path d="M302.795 76.266H295.626V83.023H302.795V76.266Z" fill="#263238"/>
<path d="M293.997 76.266H293.417L287.273 83.023H293.997V76.266Z" fill="#263238"/>
<path d="M286.828 93.776H281.288V97.361H286.828V93.776Z" fill="white" stroke="#263238" stroke-miterlimit="10" stroke-linecap="round" stroke-linejoin="round"/>
<path d="M367.651 53.251H314.562V97.492H367.651V53.251Z" fill="#263238" stroke="#263238" stroke-miterlimit="10" stroke-linecap="round" stroke-linejoin="round"/>
<path d="M358.224 53.251H305.135V97.492H358.224V53.251Z" fill="white" stroke="#263238" stroke-miterlimit="10" stroke-linecap="round" stroke-linejoin="round"/>
<path d="M299.211 105.508C303.53 105.508 307.032 102.006 307.032 97.687C307.032 93.3675 303.53 89.866 299.211 89.866C294.891 89.866 291.39 93.3675 291.39 97.687C291.39 102.006 294.891 105.508 299.211 105.508Z" fill="#263238" stroke="#263238" stroke-miterlimit="10" stroke-linecap="round" stroke-linejoin="round"/>
<path d="M302.396 97.687C302.396 95.927 300.969 94.5 299.209 94.5C297.449 94.5 296.022 95.927 296.022 97.687C296.022 99.447 297.449 100.874 299.209 100.874C300.969 100.874 302.396 99.447 302.396 97.687Z" fill="white" stroke="#263238" stroke-miterlimit="10" stroke-linecap="round" stroke-linejoin="round"/>
<path d="M343.601 105.508C347.921 105.508 351.422 102.006 351.422 97.687C351.422 93.3675 347.921 89.866 343.601 89.866C339.282 89.866 335.78 93.3675 335.78 97.687C335.78 102.006 339.282 105.508 343.601 105.508Z" fill="#263238" stroke="#263238" stroke-miterlimit="10" stroke-linecap="round" stroke-linejoin="round"/>
<path d="M346.788 97.687C346.788 95.927 345.361 94.5 343.601 94.5C341.841 94.5 340.414 95.927 340.414 97.687C340.414 99.447 341.841 100.874 343.601 100.874C345.361 100.874 346.788 99.447 346.788 97.687Z" fill="white" stroke="#263238" stroke-miterlimit="10" stroke-linecap="round" stroke-linejoin="round"/>
<path d="M329.865 87.785C338.017 87.785 344.625 81.1767 344.625 73.025C344.625 64.8733 338.017 58.265 329.865 58.265C321.714 58.265 315.105 64.8733 315.105 73.025C315.105 81.1767 321.714 87.785 329.865 87.785Z" fill="white" stroke="#263238" stroke-miterlimit="10" stroke-linecap="round" stroke-linejoin="round"/>
<path d="M329.865 81.398C334.489 81.398 338.238 77.6493 338.238 73.025C338.238 68.4007 334.489 64.652 329.865 64.652C325.241 64.652 321.492 68.4007 321.492 73.025C321.492 77.6493 325.241 81.398 329.865 81.398Z" fill="white" stroke="#263238" stroke-miterlimit="10" stroke-linecap="round" stroke-linejoin="round"/>
<path d="M159.014 120.218C158.302 120.218 157.744 120.078 157.34 119.798C156.936 119.518 156.654 119.136 156.494 118.652C156.334 118.168 156.254 117.61 156.254 116.978V113.51C156.254 112.846 156.334 112.27 156.494 111.782C156.654 111.294 156.936 110.918 157.34 110.654C157.744 110.39 158.302 110.258 159.014 110.258C159.686 110.258 160.212 110.372 160.592 110.6C160.972 110.828 161.242 111.154 161.402 111.578C161.562 112.002 161.642 112.494 161.642 113.054V113.87H159.938V113.03C159.938 112.759 159.924 112.51 159.896 112.286C159.868 112.062 159.792 111.884 159.668 111.752C159.544 111.62 159.33 111.554 159.026 111.554C158.722 111.554 158.5 111.624 158.36 111.764C158.22 111.904 158.13 112.092 158.09 112.328C158.05 112.564 158.03 112.83 158.03 113.126V117.35C158.03 117.702 158.058 117.992 158.115 118.22C158.171 118.448 158.273 118.62 158.421 118.736C158.569 118.852 158.771 118.91 159.027 118.91C159.323 118.91 159.533 118.84 159.657 118.699C159.781 118.559 159.859 118.373 159.891 118.141C159.923 117.909 159.939 117.649 159.939 117.361V116.485H161.643V117.265C161.643 117.841 161.567 118.351 161.415 118.795C161.263 119.239 160.997 119.587 160.617 119.839C160.236 120.092 159.702 120.218 159.014 120.218Z" fill="#263238"/>
<path d="M165.518 120.218C164.83 120.218 164.282 120.09 163.874 119.834C163.466 119.578 163.174 119.21 162.998 118.73C162.822 118.25 162.734 117.682 162.734 117.026V113.39C162.734 112.734 162.822 112.172 162.998 111.704C163.174 111.236 163.466 110.878 163.874 110.63C164.282 110.382 164.83 110.258 165.518 110.258C166.222 110.258 166.776 110.382 167.18 110.63C167.584 110.878 167.876 111.236 168.056 111.704C168.236 112.172 168.326 112.734 168.326 113.39V117.038C168.326 117.686 168.236 118.248 168.056 118.724C167.876 119.2 167.584 119.568 167.18 119.828C166.776 120.088 166.222 120.218 165.518 120.218ZM165.518 118.91C165.814 118.91 166.032 118.846 166.172 118.718C166.312 118.59 166.406 118.414 166.454 118.19C166.502 117.966 166.526 117.722 166.526 117.458V112.982C166.526 112.71 166.502 112.466 166.454 112.25C166.406 112.034 166.312 111.864 166.172 111.74C166.032 111.617 165.814 111.554 165.518 111.554C165.238 111.554 165.026 111.617 164.882 111.74C164.738 111.865 164.642 112.035 164.594 112.25C164.546 112.466 164.522 112.71 164.522 112.982V117.458C164.522 117.722 164.544 117.966 164.588 118.19C164.632 118.414 164.726 118.59 164.87 118.718C165.014 118.846 165.23 118.91 165.518 118.91Z" fill="#263238"/>
<path d="M169.61 120.086L169.778 110.366H171.614L172.994 117.098L174.434 110.366H176.21L176.39 120.086H175.07L174.926 113.33L173.546 120.086H172.478L171.074 113.306L170.942 120.086H169.61Z" fill="#263238"/>
<path d="M177.758 120.086V110.366H180.614C181.198 110.366 181.672 110.474 182.036 110.69C182.4 110.906 182.668 111.22 182.84 111.632C183.012 112.044 183.098 112.542 183.098 113.126C183.098 113.758 182.99 114.268 182.774 114.656C182.558 115.044 182.256 115.326 181.868 115.502C181.48 115.678 181.022 115.766 180.494 115.766H179.534V120.086H177.758ZM179.534 114.518H180.206C180.526 114.518 180.776 114.472 180.956 114.38C181.136 114.288 181.26 114.14 181.327 113.936C181.395 113.732 181.429 113.458 181.429 113.114C181.429 112.762 181.403 112.476 181.351 112.256C181.299 112.036 181.187 111.874 181.015 111.77C180.843 111.666 180.573 111.614 180.205 111.614H179.533L179.534 114.518Z" fill="#263238"/>
<path d="M184.034 120.086V110.366H188.114V111.614H185.81V114.41H187.622V115.646H185.81V118.862H188.138V120.086H184.034Z" fill="#263238"/>
<path d="M190.142 120.086V111.674H188.594V110.366H193.442V111.674H191.918V120.086H190.142Z" fill="#263238"/>
<path d="M194.377 120.086V110.366H196.13V120.086H194.377Z" fill="#263238"/>
<path d="M198.602 120.086V111.674H197.054V110.366H201.902V111.674H200.378V120.086H198.602Z" fill="#263238"/>
<path d="M205.381 120.218C204.693 120.218 204.145 120.09 203.737 119.834C203.329 119.578 203.037 119.21 202.861 118.73C202.685 118.25 202.597 117.682 202.597 117.026V113.39C202.597 112.734 202.685 112.172 202.861 111.704C203.037 111.236 203.329 110.878 203.737 110.63C204.145 110.382 204.693 110.258 205.381 110.258C206.085 110.258 206.639 110.382 207.043 110.63C207.447 110.878 207.739 111.236 207.919 111.704C208.099 112.172 208.189 112.734 208.189 113.39V117.038C208.189 117.686 208.099 118.248 207.919 118.724C207.739 119.2 207.447 119.568 207.043 119.828C206.639 120.088 206.085 120.218 205.381 120.218ZM205.381 118.91C205.677 118.91 205.895 118.846 206.035 118.718C206.175 118.59 206.269 118.414 206.317 118.19C206.365 117.966 206.389 117.722 206.389 117.458V112.982C206.389 112.71 206.365 112.466 206.317 112.25C206.269 112.034 206.175 111.864 206.035 111.74C205.895 111.617 205.677 111.554 205.381 111.554C205.101 111.554 204.889 111.617 204.745 111.74C204.601 111.865 204.505 112.035 204.457 112.25C204.409 112.466 204.385 112.71 204.385 112.982V117.458C204.385 117.722 204.407 117.966 204.451 118.19C204.495 118.414 204.589 118.59 204.733 118.718C204.877 118.846 205.093 118.91 205.381 118.91Z" fill="#263238"/>
<path d="M209.497 120.086V110.366H211.825C212.481 110.366 213.035 110.444 213.487 110.6C213.939 110.756 214.283 111.022 214.519 111.398C214.755 111.774 214.873 112.286 214.873 112.934C214.873 113.326 214.837 113.678 214.765 113.99C214.693 114.302 214.571 114.568 214.399 114.788C214.227 115.008 213.989 115.178 213.685 115.298L215.041 120.086H213.265L212.089 115.634H211.272V120.086H209.497ZM211.273 114.518H211.825C212.169 114.518 212.443 114.468 212.647 114.368C212.851 114.268 212.997 114.108 213.085 113.888C213.173 113.668 213.217 113.386 213.217 113.042C213.217 112.554 213.127 112.188 212.947 111.944C212.767 111.7 212.425 111.578 211.921 111.578H211.273V114.518Z" fill="#263238"/>
<path d="M218.653 120.218C218.069 120.218 217.581 120.104 217.189 119.876C216.797 119.648 216.501 119.314 216.301 118.874C216.101 118.434 215.989 117.894 215.965 117.254L217.489 116.954C217.505 117.33 217.551 117.662 217.627 117.95C217.703 118.238 217.819 118.46 217.975 118.616C218.131 118.772 218.337 118.85 218.593 118.85C218.881 118.85 219.085 118.764 219.205 118.592C219.325 118.42 219.385 118.202 219.385 117.938C219.385 117.514 219.289 117.166 219.097 116.894C218.905 116.622 218.649 116.35 218.329 116.078L217.105 114.998C216.761 114.702 216.487 114.372 216.283 114.008C216.079 113.644 215.977 113.194 215.977 112.658C215.977 111.89 216.201 111.298 216.649 110.882C217.097 110.466 217.709 110.258 218.486 110.258C218.941 110.258 219.321 110.328 219.626 110.468C219.93 110.608 220.172 110.802 220.352 111.05C220.532 111.298 220.666 111.58 220.754 111.896C220.842 112.212 220.898 112.546 220.923 112.898L219.411 113.162C219.395 112.858 219.361 112.586 219.309 112.346C219.257 112.106 219.165 111.918 219.033 111.782C218.901 111.646 218.707 111.578 218.451 111.578C218.187 111.578 217.985 111.664 217.845 111.836C217.705 112.008 217.635 112.222 217.635 112.478C217.635 112.806 217.703 113.076 217.839 113.288C217.975 113.5 218.171 113.718 218.427 113.942L219.639 115.01C220.039 115.346 220.381 115.74 220.665 116.192C220.949 116.644 221.091 117.19 221.091 117.83C221.091 118.294 220.989 118.706 220.785 119.066C220.581 119.426 220.297 119.708 219.933 119.912C219.567 120.116 219.141 120.218 218.653 120.218Z" fill="#263238"/>
<path d="M208.948 92.8071C208.898 82.1811 200.289 73.5811 189.672 73.5811C186.387 73.5811 183.294 74.4041 180.587 75.8561C174.546 79.0971 170.43 85.4681 170.396 92.8071H208.948Z" fill="white" stroke="#263238" stroke-miterlimit="10" stroke-linecap="round" stroke-linejoin="round"/>
<path d="M189.672 73.5811C187.596 73.5811 185.601 73.9191 183.727 74.5281L183.848 74.7491L190.123 90.5971L195.888 74.6281C193.936 73.9601 191.85 73.5811 189.672 73.5811Z" fill="white" stroke="#263238" stroke-miterlimit="10" stroke-linecap="round" stroke-linejoin="round"/>
<path d="M189.961 75.884L187.47 77.936L189.082 79.694L187.763 81.893L190.123 90.596L192.16 82.332L191.134 79.841L192.599 77.936L189.961 75.884Z" fill="#263238"/>
<path d="M195.887 74.6271L190.108 76.4921L183.741 74.6271V66.8671H195.887V74.6271Z" fill="white" stroke="#263238" stroke-miterlimit="10" stroke-linecap="round" stroke-linejoin="round"/>
<path d="M199.015 57.119C199.015 57.418 199.015 57.703 199.001 57.988C198.773 67.622 194.697 71.527 189.666 71.527C184.635 71.527 180.531 68.335 180.331 57.96C180.317 57.689 180.317 57.404 180.317 57.119C180.317 51.176 184.507 46.374 189.666 46.374C194.84 46.373 199.015 51.176 199.015 57.119Z" fill="white" stroke="#263238" stroke-miterlimit="10" stroke-linecap="round" stroke-linejoin="round"/>
<path d="M199.015 57.119C199.015 57.418 199.015 57.703 199.001 57.988L198.93 58.287H196.764V54.582L193.415 50.877H186.375L184.309 48.811L184.936 51.59L182.157 54.682V58.074H180.404L180.333 57.96C180.319 57.689 180.319 57.404 180.319 57.119C180.319 51.176 184.509 46.374 189.668 46.374C194.84 46.373 199.015 51.176 199.015 57.119Z" fill="#263238"/>
<path d="M184.874 104.091C184.824 93.4651 176.215 84.8651 165.598 84.8651C162.313 84.8651 159.22 85.6881 156.513 87.1401C150.472 90.3811 146.356 96.7521 146.321 104.09H184.874V104.091Z" fill="white" stroke="#263238" stroke-miterlimit="10" stroke-linecap="round" stroke-linejoin="round"/>
<path d="M165.598 84.8661C163.522 84.8661 161.527 85.2041 159.653 85.8131L159.774 86.0341L166.049 101.882L171.814 85.9131C169.861 85.2441 167.776 84.8661 165.598 84.8661Z" fill="white" stroke="#263238" stroke-miterlimit="10" stroke-linecap="round" stroke-linejoin="round"/>
<path d="M165.887 87.1681L163.396 89.2201L165.008 90.9791L163.689 93.1771L166.049 101.881L168.086 93.6171L167.06 91.1251L168.525 89.2201L165.887 87.1681Z" fill="#263238"/>
<path d="M171.814 85.9121L166.035 87.7761L159.667 85.9121V78.1511H171.814V85.9121Z" fill="white" stroke="#263238" stroke-miterlimit="10" stroke-linecap="round" stroke-linejoin="round"/>
<path d="M174.942 68.4031C174.942 68.7021 174.942 68.9871 174.928 69.2721C174.7 78.9061 170.624 82.8111 165.593 82.8111C160.562 82.8111 156.458 79.6191 156.258 69.2441C156.244 68.9731 156.244 68.6881 156.244 68.4031C156.244 62.4601 160.434 57.6581 165.593 57.6581C170.766 57.6581 174.942 62.4601 174.942 68.4031Z" fill="white" stroke="#263238" stroke-miterlimit="10" stroke-linecap="round" stroke-linejoin="round"/>
<path d="M174.942 68.4031C174.942 68.7021 174.942 68.9871 174.928 69.2721L174.857 69.5711H172.691V65.8661L169.342 62.1611H162.302L160.236 60.0951L160.863 62.8741L158.084 65.9671V69.3591H156.331L156.26 69.2451C156.246 68.9741 156.246 68.6891 156.246 68.4041C156.246 62.4611 160.436 57.6591 165.595 57.6591C170.766 57.6581 174.942 62.4601 174.942 68.4031Z" fill="#263238"/>
<path d="M233.242 104.091C233.192 93.4651 224.583 84.8651 213.965 84.8651C210.68 84.8651 207.587 85.6881 204.88 87.1401C198.839 90.3811 194.723 96.7521 194.689 104.09H233.242V104.091Z" fill="white" stroke="#263238" stroke-miterlimit="10" stroke-linecap="round" stroke-linejoin="round"/>
<path d="M213.966 84.8661C211.89 84.8661 209.895 85.2041 208.021 85.8131L208.142 86.0341L214.417 101.882L220.182 85.9131C218.229 85.2441 216.144 84.8661 213.966 84.8661Z" fill="white" stroke="#263238" stroke-miterlimit="10" stroke-linecap="round" stroke-linejoin="round"/>
<path d="M214.256 87.1681L211.764 89.2201L213.376 90.9791L212.057 93.1771L214.418 101.881L216.454 93.6171L215.428 91.1251L216.894 89.2201L214.256 87.1681Z" fill="#263238"/>
<path d="M220.182 85.9121L214.403 87.7761L208.035 85.9121V78.1511H220.182V85.9121Z" fill="white" stroke="#263238" stroke-miterlimit="10" stroke-linecap="round" stroke-linejoin="round"/>
<path d="M223.31 68.4031C223.31 68.7021 223.31 68.9871 223.296 69.2721C223.068 78.9061 218.992 82.8111 213.961 82.8111C208.93 82.8111 204.826 79.6191 204.626 69.2441C204.612 68.9731 204.612 68.6881 204.612 68.4031C204.612 62.4601 208.802 57.6581 213.961 57.6581C219.134 57.6581 223.31 62.4601 223.31 68.4031Z" fill="white" stroke="#263238" stroke-miterlimit="10" stroke-linecap="round" stroke-linejoin="round"/>
<path d="M223.31 68.4031C223.31 68.7021 223.31 68.9871 223.296 69.2721L223.225 69.5711H221.059V65.8661L217.71 62.1611H210.67L208.604 60.0951L209.231 62.8741L206.452 65.9671V69.3591H204.699L204.628 69.2451C204.614 68.9741 204.614 68.6891 204.614 68.4041C204.614 62.4611 208.804 57.6591 213.963 57.6591C219.134 57.6581 223.31 62.4601 223.31 68.4031Z" fill="#263238"/>
<path d="M50.7275 210.722V201.002H53.5835C54.1675 201.002 54.6415 201.11 55.0055 201.326C55.3695 201.542 55.6375 201.856 55.8095 202.268C55.9815 202.68 56.0675 203.178 56.0675 203.762C56.0675 204.394 55.9595 204.904 55.7435 205.292C55.5275 205.68 55.2255 205.962 54.8375 206.138C54.4495 206.314 53.9915 206.402 53.4635 206.402H52.5035V210.722H50.7275ZM52.5035 205.154H53.1755C53.4955 205.154 53.7455 205.108 53.9255 205.016C54.1055 204.924 54.2295 204.776 54.2965 204.572C54.3645 204.368 54.3985 204.094 54.3985 203.75C54.3985 203.398 54.3725 203.112 54.3205 202.892C54.2685 202.672 54.1565 202.51 53.9845 202.406C53.8125 202.302 53.5425 202.25 53.1745 202.25H52.5025V205.154H52.5035Z" fill="#263238"/>
<path d="M57.0039 210.722V201.002H59.3319C59.9879 201.002 60.5419 201.08 60.9939 201.236C61.4459 201.392 61.7899 201.658 62.0259 202.034C62.2619 202.41 62.3799 202.922 62.3799 203.57C62.3799 203.962 62.3439 204.314 62.2719 204.626C62.1999 204.938 62.0779 205.204 61.9059 205.424C61.7339 205.644 61.4959 205.814 61.1919 205.934L62.5479 210.722H60.7719L59.5959 206.27H58.7799V210.722H57.0039ZM58.7799 205.154H59.3319C59.6759 205.154 59.9499 205.104 60.1539 205.004C60.3579 204.904 60.5039 204.744 60.5919 204.524C60.6799 204.304 60.7239 204.023 60.7239 203.678C60.7239 203.19 60.6339 202.824 60.4539 202.58C60.2739 202.336 59.9319 202.214 59.4279 202.214H58.7799V205.154Z" fill="#263238"/>
<path d="M66.3279 210.854C65.6399 210.854 65.0919 210.726 64.6839 210.47C64.2759 210.214 63.9839 209.846 63.8079 209.366C63.6319 208.886 63.5439 208.318 63.5439 207.662V204.026C63.5439 203.37 63.6319 202.808 63.8079 202.34C63.9839 201.872 64.2759 201.514 64.6839 201.266C65.0919 201.018 65.6399 200.894 66.3279 200.894C67.0319 200.894 67.5859 201.018 67.9899 201.266C68.3939 201.514 68.6859 201.872 68.8659 202.34C69.0459 202.808 69.1359 203.37 69.1359 204.026V207.674C69.1359 208.322 69.0459 208.884 68.8659 209.36C68.6859 209.836 68.3939 210.204 67.9899 210.464C67.5859 210.724 67.0319 210.854 66.3279 210.854ZM66.3279 209.546C66.6239 209.546 66.8419 209.482 66.9819 209.354C67.1219 209.226 67.2159 209.05 67.2639 208.826C67.3119 208.602 67.3359 208.358 67.3359 208.094V203.618C67.3359 203.346 67.3119 203.102 67.2639 202.886C67.2159 202.67 67.1219 202.5 66.9819 202.376C66.8419 202.252 66.6239 202.19 66.3279 202.19C66.0479 202.19 65.8359 202.253 65.6919 202.376C65.5479 202.5 65.4519 202.67 65.4039 202.886C65.3559 203.102 65.3319 203.346 65.3319 203.618V208.094C65.3319 208.358 65.3539 208.602 65.3979 208.826C65.4419 209.05 65.5359 209.226 65.6799 209.354C65.8249 209.482 66.0399 209.546 66.3279 209.546Z" fill="#263238"/>
<path d="M70.4434 210.722V201.002H72.7354C73.5274 201.002 74.1454 201.11 74.5894 201.326C75.0334 201.542 75.3494 201.874 75.5374 202.322C75.7254 202.77 75.8194 203.338 75.8194 204.026V207.578C75.8194 208.282 75.7254 208.868 75.5374 209.336C75.3494 209.804 75.0374 210.152 74.6014 210.38C74.1654 210.608 73.5674 210.722 72.8074 210.722H70.4434ZM72.2194 209.486H72.7594C73.1674 209.486 73.4594 209.414 73.6354 209.27C73.8114 209.126 73.9194 208.916 73.9594 208.64C73.9994 208.364 74.0194 208.026 74.0194 207.626V203.906C74.0194 203.514 73.9914 203.198 73.9354 202.958C73.8794 202.718 73.7634 202.543 73.5874 202.43C73.4114 202.318 73.1274 202.262 72.7354 202.262H72.2194V209.486Z" fill="#263238"/>
<path d="M79.7917 210.854C79.0717 210.854 78.5117 210.722 78.1117 210.458C77.7117 210.194 77.4357 209.818 77.2837 209.33C77.1317 208.842 77.0557 208.258 77.0557 207.578V201.002H78.7837V207.782C78.7837 208.086 78.8027 208.372 78.8437 208.64C78.8837 208.908 78.9777 209.124 79.1257 209.288C79.2737 209.452 79.4957 209.534 79.7917 209.534C80.1037 209.534 80.3297 209.452 80.4697 209.288C80.6097 209.124 80.7017 208.908 80.7457 208.64C80.7897 208.372 80.8117 208.086 80.8117 207.782V201.002H82.5277V207.578C82.5277 208.258 82.4517 208.842 82.2997 209.33C82.1477 209.818 81.8737 210.194 81.4777 210.458C81.0817 210.722 80.5197 210.854 79.7917 210.854Z" fill="#263238"/>
<path d="M86.5354 210.854C85.8234 210.854 85.2644 210.714 84.8614 210.434C84.4574 210.154 84.1754 209.772 84.0154 209.288C83.8554 208.804 83.7754 208.246 83.7754 207.614V204.146C83.7754 203.482 83.8554 202.906 84.0154 202.418C84.1754 201.93 84.4574 201.554 84.8614 201.29C85.2654 201.026 85.8234 200.894 86.5354 200.894C87.2074 200.894 87.7334 201.008 88.1134 201.236C88.4934 201.464 88.7634 201.79 88.9234 202.214C89.0834 202.638 89.1634 203.13 89.1634 203.689V204.505H87.4594V203.665C87.4594 203.394 87.4454 203.145 87.4174 202.921C87.3894 202.697 87.3134 202.519 87.1894 202.387C87.0654 202.255 86.8514 202.189 86.5474 202.189C86.2434 202.189 86.0214 202.259 85.8814 202.4C85.7414 202.54 85.6514 202.728 85.6114 202.964C85.5714 203.2 85.5514 203.466 85.5514 203.762V207.986C85.5514 208.338 85.5794 208.628 85.6354 208.856C85.6914 209.084 85.7934 209.256 85.9414 209.372C86.0894 209.488 86.2914 209.546 86.5474 209.546C86.8434 209.546 87.0534 209.476 87.1774 209.336C87.3014 209.196 87.3794 209.01 87.4114 208.778C87.4434 208.546 87.4594 208.286 87.4594 207.998V207.122H89.1634V207.902C89.1634 208.478 89.0874 208.988 88.9354 209.432C88.7834 209.876 88.5174 210.224 88.1374 210.476C87.7574 210.728 87.2234 210.854 86.5354 210.854Z" fill="#263238"/>
<path d="M91.3712 210.722V202.31H89.8232V201.002H94.6712V202.31H93.1472V210.722H91.3712Z" fill="#263238"/>
<path d="M98.0073 210.854C97.4223 210.854 96.9353 210.74 96.5433 210.512C96.1513 210.284 95.8553 209.95 95.6553 209.51C95.4553 209.07 95.3433 208.53 95.3193 207.89L96.8433 207.59C96.8593 207.966 96.9053 208.298 96.9813 208.586C97.0573 208.874 97.1733 209.096 97.3293 209.252C97.4853 209.408 97.6913 209.486 97.9473 209.486C98.2353 209.486 98.4393 209.4 98.5593 209.228C98.6793 209.056 98.7393 208.838 98.7393 208.574C98.7393 208.15 98.6433 207.802 98.4513 207.53C98.2593 207.258 98.0033 206.986 97.6833 206.714L96.4593 205.634C96.1153 205.338 95.8413 205.008 95.6373 204.644C95.4333 204.28 95.3313 203.83 95.3313 203.294C95.3313 202.526 95.5553 201.934 96.0033 201.518C96.4513 201.102 97.0633 200.894 97.8393 200.894C98.2953 200.894 98.6743 200.964 98.9793 201.104C99.2833 201.244 99.5253 201.439 99.7053 201.686C99.8853 201.934 100.019 202.216 100.107 202.532C100.195 202.848 100.251 203.182 100.276 203.534L98.7643 203.798C98.7483 203.494 98.7143 203.222 98.6623 202.982C98.6103 202.742 98.5183 202.554 98.3863 202.418C98.2543 202.282 98.0603 202.214 97.8043 202.214C97.5403 202.214 97.3383 202.3 97.1983 202.472C97.0583 202.644 96.9883 202.858 96.9883 203.114C96.9883 203.442 97.0563 203.712 97.1923 203.924C97.3283 204.136 97.5243 204.354 97.7803 204.578L98.9923 205.646C99.3923 205.982 99.7343 206.376 100.018 206.828C100.302 207.28 100.444 207.826 100.444 208.466C100.444 208.93 100.342 209.342 100.138 209.702C99.9343 210.062 99.6503 210.344 99.2863 210.548C98.9213 210.752 98.4953 210.854 98.0073 210.854Z" fill="#263238"/>
<path d="M106.359 210.854C105.911 210.854 105.521 210.76 105.189 210.572C104.857 210.384 104.601 210.12 104.421 209.78C104.241 209.44 104.151 209.042 104.151 208.586C104.151 207.97 104.285 207.434 104.553 206.978C104.821 206.522 105.155 206.102 105.555 205.718C105.403 205.43 105.247 205.14 105.087 204.848C104.927 204.556 104.794 204.258 104.691 203.954C104.587 203.65 104.535 203.342 104.535 203.03C104.535 202.614 104.619 202.246 104.787 201.926C104.955 201.606 105.195 201.352 105.507 201.164C105.819 200.976 106.195 200.882 106.635 200.882C107.043 200.882 107.401 200.962 107.709 201.122C108.017 201.282 108.263 201.508 108.447 201.8C108.631 202.092 108.723 202.434 108.723 202.826C108.723 203.258 108.629 203.658 108.441 204.026C108.253 204.394 108.027 204.728 107.763 205.028C107.499 205.328 107.243 205.606 106.995 205.862L108.291 208.082C108.371 207.938 108.439 207.754 108.495 207.53C108.551 207.306 108.597 207.066 108.633 206.81C108.669 206.554 108.695 206.318 108.711 206.102H110.007C110.007 206.494 109.969 206.866 109.893 207.218C109.817 207.57 109.715 207.896 109.587 208.196C109.459 208.496 109.318 208.774 109.167 209.03C109.263 209.142 109.389 209.24 109.545 209.324C109.701 209.408 109.867 209.454 110.043 209.462V210.842C109.995 210.85 109.949 210.856 109.905 210.86C109.861 210.864 109.819 210.866 109.779 210.866C109.563 210.858 109.363 210.808 109.179 210.716C108.995 210.624 108.827 210.51 108.675 210.374C108.523 210.238 108.387 210.102 108.267 209.966C108.059 210.23 107.795 210.444 107.475 210.608C107.155 210.772 106.783 210.854 106.359 210.854ZM106.394 209.654C106.634 209.654 106.842 209.594 107.018 209.474C107.194 209.354 107.346 209.214 107.474 209.054L106.142 206.81C105.958 207.074 105.818 207.352 105.722 207.644C105.626 207.936 105.578 208.238 105.578 208.55C105.578 208.742 105.606 208.924 105.662 209.096C105.718 209.268 105.806 209.404 105.926 209.504C106.047 209.605 106.202 209.654 106.394 209.654ZM106.491 204.998C106.627 204.822 106.759 204.61 106.887 204.362C107.015 204.114 107.119 203.854 107.199 203.582C107.279 203.31 107.319 203.05 107.319 202.802C107.319 202.586 107.255 202.416 107.127 202.292C106.999 202.168 106.839 202.106 106.647 202.106C106.423 202.106 106.255 202.196 106.143 202.376C106.031 202.556 105.975 202.774 105.975 203.03C105.975 203.374 106.031 203.716 106.143 204.056C106.255 204.396 106.37 204.71 106.491 204.998Z" fill="#263238"/>
<path d="M116.715 210.854C116.13 210.854 115.643 210.74 115.251 210.512C114.859 210.284 114.563 209.95 114.363 209.51C114.163 209.07 114.051 208.53 114.027 207.89L115.551 207.59C115.567 207.966 115.613 208.298 115.689 208.586C115.765 208.874 115.881 209.096 116.037 209.252C116.193 209.408 116.399 209.486 116.655 209.486C116.943 209.486 117.147 209.4 117.267 209.228C117.387 209.056 117.447 208.838 117.447 208.574C117.447 208.15 117.351 207.802 117.159 207.53C116.967 207.258 116.711 206.986 116.391 206.714L115.167 205.634C114.823 205.338 114.549 205.008 114.345 204.644C114.141 204.28 114.039 203.83 114.039 203.294C114.039 202.526 114.263 201.934 114.711 201.518C115.159 201.102 115.771 200.894 116.548 200.894C117.003 200.894 117.383 200.964 117.688 201.104C117.992 201.244 118.234 201.439 118.414 201.686C118.594 201.934 118.728 202.216 118.816 202.532C118.904 202.848 118.96 203.182 118.984 203.534L117.472 203.798C117.456 203.494 117.422 203.222 117.37 202.982C117.318 202.742 117.226 202.554 117.094 202.418C116.962 202.282 116.768 202.214 116.512 202.214C116.248 202.214 116.046 202.3 115.906 202.472C115.766 202.644 115.696 202.858 115.696 203.114C115.696 203.442 115.764 203.712 115.9 203.924C116.036 204.136 116.232 204.354 116.488 204.578L117.7 205.646C118.1 205.982 118.442 206.376 118.726 206.828C119.01 207.28 119.152 207.826 119.152 208.466C119.152 208.93 119.05 209.342 118.846 209.702C118.642 210.062 118.358 210.344 117.994 210.548C117.628 210.752 117.202 210.854 116.715 210.854Z" fill="#263238"/>
<path d="M120.099 210.722V201.002H124.179V202.25H121.875V205.046H123.687V206.282H121.875V209.498H124.203V210.722H120.099Z" fill="#263238"/>
<path d="M125.234 210.722V201.002H127.562C128.218 201.002 128.772 201.08 129.224 201.236C129.676 201.392 130.02 201.658 130.256 202.034C130.492 202.41 130.61 202.922 130.61 203.57C130.61 203.962 130.574 204.314 130.502 204.626C130.43 204.938 130.308 205.204 130.136 205.424C129.964 205.644 129.726 205.814 129.422 205.934L130.778 210.722H129.002L127.826 206.27H127.01V210.722H125.234ZM127.01 205.154H127.562C127.906 205.154 128.18 205.104 128.384 205.004C128.588 204.904 128.734 204.744 128.822 204.524C128.91 204.304 128.954 204.023 128.954 203.678C128.954 203.19 128.864 202.824 128.684 202.58C128.504 202.336 128.162 202.214 127.658 202.214H127.01V205.154Z" fill="#263238"/>
<path d="M133.407 210.722L131.451 201.002H133.023L134.307 207.878L135.507 201.002H137.115L135.159 210.722H133.407Z" fill="#263238"/>
<path d="M138.158 210.722V201.002H139.91V210.722H138.158Z" fill="#263238"/>
<path d="M144.027 210.854C143.315 210.854 142.757 210.714 142.353 210.434C141.949 210.154 141.667 209.772 141.507 209.288C141.347 208.804 141.267 208.246 141.267 207.614V204.146C141.267 203.482 141.347 202.906 141.507 202.418C141.667 201.93 141.949 201.554 142.353 201.29C142.757 201.026 143.315 200.894 144.027 200.894C144.699 200.894 145.225 201.008 145.605 201.236C145.985 201.464 146.255 201.79 146.415 202.214C146.575 202.638 146.655 203.13 146.655 203.689V204.505H144.951V203.665C144.951 203.394 144.937 203.145 144.909 202.921C144.881 202.697 144.805 202.519 144.681 202.387C144.557 202.255 144.343 202.189 144.039 202.189C143.735 202.189 143.513 202.259 143.373 202.4C143.233 202.54 143.143 202.728 143.103 202.964C143.063 203.2 143.043 203.466 143.043 203.762V207.986C143.043 208.338 143.071 208.628 143.127 208.856C143.183 209.084 143.285 209.256 143.433 209.372C143.581 209.488 143.783 209.546 144.039 209.546C144.335 209.546 144.545 209.476 144.669 209.336C144.793 209.196 144.871 209.01 144.903 208.778C144.935 208.546 144.951 208.286 144.951 207.998V207.122H146.655V207.902C146.655 208.478 146.579 208.988 146.427 209.432C146.275 209.876 146.009 210.224 145.629 210.476C145.249 210.728 144.715 210.854 144.027 210.854Z" fill="#263238"/>
<path d="M147.891 210.722V201.002H151.971V202.25H149.667V205.046H151.479V206.282H149.667V209.498H151.995V210.722H147.891Z" fill="#263238"/>
<path d="M155.474 210.854C154.889 210.854 154.402 210.74 154.01 210.512C153.618 210.284 153.322 209.95 153.122 209.51C152.922 209.07 152.81 208.53 152.786 207.89L154.31 207.59C154.326 207.966 154.372 208.298 154.448 208.586C154.524 208.874 154.64 209.096 154.796 209.252C154.952 209.408 155.158 209.486 155.414 209.486C155.703 209.486 155.906 209.4 156.026 209.228C156.146 209.056 156.207 208.838 156.207 208.574C156.207 208.15 156.11 207.802 155.918 207.53C155.727 207.258 155.471 206.986 155.15 206.714L153.926 205.634C153.582 205.338 153.308 205.008 153.104 204.644C152.9 204.28 152.798 203.83 152.798 203.294C152.798 202.526 153.022 201.934 153.47 201.518C153.918 201.102 154.53 200.894 155.306 200.894C155.761 200.894 156.142 200.964 156.447 201.104C156.75 201.244 156.992 201.439 157.172 201.686C157.352 201.934 157.486 202.216 157.574 202.532C157.662 202.848 157.719 203.182 157.742 203.534L156.23 203.798C156.214 203.494 156.179 203.222 156.128 202.982C156.075 202.742 155.983 202.554 155.852 202.418C155.72 202.282 155.526 202.214 155.27 202.214C155.006 202.214 154.804 202.3 154.664 202.472C154.524 202.644 154.454 202.858 154.454 203.114C154.454 203.442 154.522 203.712 154.658 203.924C154.794 204.136 154.99 204.354 155.246 204.578L156.458 205.646C156.856 205.982 157.2 206.376 157.483 206.828C157.766 207.28 157.909 207.826 157.909 208.466C157.909 208.93 157.808 209.342 157.602 209.702C157.399 210.062 157.116 210.344 156.75 210.548C156.388 210.752 155.962 210.854 155.474 210.854Z" fill="#263238"/>
<path d="M67.8369 162.338H84.8139L93.3739 148.256H76.3979L67.8369 162.338Z" fill="white" stroke="#263238" stroke-miterlimit="10" stroke-linecap="round" stroke-linejoin="round"/>
<path d="M130.832 148.256H76.4336V191.898H130.832V148.256Z" fill="white" stroke="#263238" stroke-miterlimit="10" stroke-linecap="round" stroke-linejoin="round"/>
<path d="M130.832 148.256H114.043V191.898H130.832V148.256Z" fill="#263238" stroke="#263238" stroke-miterlimit="10" stroke-linecap="round" stroke-linejoin="round"/>
<path d="M139.58 162.338H122.603L114.043 148.256H131.019L139.58 162.338Z" fill="white" stroke="#263238" stroke-miterlimit="10" stroke-linecap="round" stroke-linejoin="round"/>
<path d="M109.459 162.338H72.8242L76.6292 148.256H113.263L109.459 162.338Z" fill="white" stroke="#263238" stroke-miterlimit="10" stroke-linecap="round" stroke-linejoin="round"/>
<path d="M110.223 181.754H101.703V186.161H110.223V181.754Z" fill="white" stroke="#263238" stroke-miterlimit="10" stroke-linecap="round" stroke-linejoin="round"/>
<path d="M70.008 325.645V317.233H68.46V315.925H73.308V317.233H71.784V325.645H70.008Z" fill="#263238"/>
<path d="M74.1953 325.645V315.925H78.2753V317.173H75.9713V319.969H77.7833V321.205H75.9713V324.421H78.2993V325.645H74.1953Z" fill="#263238"/>
<path d="M81.9475 325.776C81.2355 325.776 80.6765 325.636 80.2735 325.356C79.8695 325.077 79.5875 324.695 79.4275 324.21C79.2675 323.726 79.1875 323.168 79.1875 322.536V319.067C79.1875 318.404 79.2675 317.828 79.4275 317.339C79.5875 316.851 79.8695 316.475 80.2735 316.211C80.6775 315.947 81.2355 315.815 81.9475 315.815C82.6195 315.815 83.1455 315.929 83.5255 316.158C83.9055 316.385 84.1755 316.712 84.3355 317.135C84.4955 317.559 84.5755 318.051 84.5755 318.611V319.427H82.8715V318.587C82.8715 318.316 82.8575 318.066 82.8295 317.843C82.8015 317.619 82.7255 317.441 82.6015 317.309C82.4775 317.177 82.2635 317.111 81.9595 317.111C81.6555 317.111 81.4335 317.181 81.2935 317.322C81.1535 317.462 81.0635 317.65 81.0235 317.885C80.9835 318.121 80.9635 318.387 80.9635 318.683V322.908C80.9635 323.26 80.9915 323.55 81.0475 323.777C81.1035 324.006 81.2055 324.177 81.3535 324.294C81.5015 324.41 81.7035 324.468 81.9595 324.468C82.2555 324.468 82.4655 324.398 82.5895 324.258C82.7135 324.118 82.7915 323.932 82.8235 323.7C82.8555 323.468 82.8715 323.208 82.8715 322.92V322.044H84.5755V322.824C84.5755 323.399 84.4995 323.91 84.3475 324.353C84.1955 324.797 83.9295 325.145 83.5495 325.397C83.1695 325.65 82.6355 325.776 81.9475 325.776Z" fill="#263238"/>
<path d="M85.8359 325.645V315.925H87.5999V319.993H89.5799V315.925H91.3559V325.645H89.5799V321.253H87.5999V325.645H85.8359Z" fill="#263238"/>
<path d="M92.8428 325.645V315.925H94.0788L96.4428 321.469V315.925H97.9068V325.645H96.7308L94.3548 319.837V325.645H92.8428Z" fill="#263238"/>
<path d="M102.023 325.776C101.335 325.776 100.787 325.648 100.379 325.392C99.9713 325.136 99.6793 324.768 99.5033 324.288C99.3273 323.808 99.2393 323.24 99.2393 322.584V318.948C99.2393 318.292 99.3273 317.729 99.5033 317.262C99.6793 316.794 99.9713 316.436 100.379 316.188C100.787 315.94 101.335 315.816 102.023 315.816C102.727 315.816 103.281 315.94 103.685 316.188C104.089 316.436 104.381 316.794 104.561 317.262C104.741 317.73 104.831 318.292 104.831 318.948V322.596C104.831 323.244 104.741 323.806 104.561 324.282C104.381 324.758 104.089 325.126 103.685 325.385C103.281 325.647 102.727 325.776 102.023 325.776ZM102.023 324.469C102.319 324.469 102.537 324.405 102.677 324.277C102.817 324.149 102.911 323.973 102.959 323.75C103.007 323.525 103.031 323.282 103.031 323.018V318.542C103.031 318.27 103.007 318.025 102.959 317.81C102.911 317.594 102.817 317.424 102.677 317.3C102.537 317.176 102.319 317.114 102.023 317.114C101.743 317.114 101.531 317.177 101.387 317.3C101.243 317.424 101.147 317.594 101.099 317.81C101.051 318.026 101.027 318.27 101.027 318.542V323.018C101.027 323.283 101.049 323.526 101.093 323.75C101.137 323.974 101.231 324.149 101.375 324.277C101.52 324.405 101.735 324.469 102.023 324.469Z" fill="#263238"/>
<path d="M106.139 325.645V315.925H107.915V324.421H110.267V325.645H106.139Z" fill="#263238"/>
<path d="M113.711 325.776C113.023 325.776 112.475 325.648 112.067 325.392C111.659 325.136 111.367 324.768 111.191 324.288C111.015 323.808 110.927 323.24 110.927 322.584V318.948C110.927 318.292 111.015 317.729 111.191 317.262C111.367 316.794 111.659 316.436 112.067 316.188C112.475 315.94 113.023 315.816 113.711 315.816C114.415 315.816 114.969 315.94 115.373 316.188C115.777 316.436 116.069 316.794 116.249 317.262C116.429 317.73 116.519 318.292 116.519 318.948V322.596C116.519 323.244 116.429 323.806 116.249 324.282C116.069 324.758 115.777 325.126 115.373 325.385C114.969 325.647 114.415 325.776 113.711 325.776ZM113.711 324.469C114.007 324.469 114.225 324.405 114.365 324.277C114.505 324.149 114.599 323.973 114.647 323.75C114.695 323.525 114.719 323.282 114.719 323.018V318.542C114.719 318.27 114.695 318.025 114.647 317.81C114.599 317.594 114.505 317.424 114.365 317.3C114.225 317.176 114.007 317.114 113.711 317.114C113.431 317.114 113.219 317.177 113.075 317.3C112.931 317.424 112.835 317.594 112.788 317.81C112.74 318.026 112.716 318.27 112.716 318.542V323.018C112.716 323.283 112.738 323.526 112.782 323.75C112.826 323.974 112.92 324.149 113.064 324.277C113.208 324.405 113.423 324.469 113.711 324.469Z" fill="#263238"/>
<path d="M120.263 325.776C119.623 325.776 119.115 325.64 118.739 325.369C118.363 325.097 118.093 324.711 117.929 324.211C117.765 323.711 117.683 323.121 117.683 322.44V319.176C117.683 318.48 117.763 317.88 117.923 317.376C118.083 316.872 118.365 316.486 118.769 316.218C119.173 315.95 119.731 315.816 120.443 315.816C121.107 315.816 121.635 315.928 122.027 316.152C122.419 316.377 122.701 316.699 122.873 317.119C123.045 317.539 123.131 318.049 123.131 318.648V319.152H121.439V318.6C121.439 318.289 121.417 318.02 121.373 317.796C121.329 317.572 121.241 317.402 121.109 317.286C120.977 317.17 120.763 317.111 120.467 317.111C120.155 317.111 119.929 317.187 119.789 317.339C119.649 317.491 119.561 317.692 119.525 317.939C119.489 318.187 119.471 318.46 119.471 318.755V322.823C119.471 323.159 119.499 323.451 119.555 323.699C119.611 323.947 119.715 324.137 119.867 324.268C120.019 324.4 120.235 324.466 120.515 324.466C120.803 324.466 121.023 324.394 121.175 324.25C121.327 324.105 121.433 323.906 121.493 323.649C121.553 323.393 121.583 323.089 121.583 322.738V321.826H120.539V320.71H123.179V325.642H122.039L121.907 324.682C121.779 325.002 121.585 325.264 121.325 325.468C121.065 325.675 120.711 325.776 120.263 325.776Z" fill="#263238"/>
<path d="M124.583 325.645V315.925H126.335V325.645H124.583Z" fill="#263238"/>
<path d="M127.835 325.645V315.925H131.915V317.173H129.611V319.969H131.423V321.205H129.611V324.421H131.939V325.645H127.835Z" fill="#263238"/>
<path d="M135.419 325.776C134.834 325.776 134.347 325.663 133.955 325.434C133.563 325.206 133.267 324.872 133.067 324.432C132.867 323.993 132.755 323.453 132.731 322.812L134.255 322.512C134.271 322.888 134.317 323.22 134.393 323.508C134.469 323.796 134.585 324.018 134.741 324.174C134.897 324.33 135.103 324.408 135.359 324.408C135.647 324.408 135.851 324.322 135.971 324.149C136.091 323.977 136.151 323.759 136.151 323.496C136.151 323.072 136.055 322.724 135.863 322.452C135.671 322.18 135.415 321.908 135.095 321.636L133.871 320.556C133.527 320.26 133.253 319.93 133.049 319.566C132.845 319.203 132.743 318.752 132.743 318.216C132.743 317.448 132.967 316.856 133.415 316.44C133.863 316.024 134.475 315.816 135.251 315.816C135.707 315.816 136.086 315.886 136.391 316.026C136.695 316.167 136.937 316.361 137.117 316.608C137.297 316.856 137.431 317.138 137.519 317.455C137.607 317.77 137.663 318.104 137.688 318.457L136.176 318.721C136.16 318.417 136.126 318.145 136.074 317.905C136.022 317.666 135.93 317.477 135.798 317.341C135.666 317.205 135.472 317.137 135.216 317.137C134.952 317.137 134.75 317.223 134.61 317.395C134.47 317.568 134.4 317.782 134.4 318.038C134.4 318.366 134.468 318.636 134.604 318.848C134.74 319.06 134.936 319.279 135.192 319.502L136.404 320.569C136.804 320.905 137.146 321.299 137.43 321.752C137.714 322.204 137.856 322.75 137.856 323.39C137.856 323.854 137.754 324.266 137.55 324.626C137.346 324.985 137.062 325.268 136.698 325.472C136.333 325.675 135.907 325.776 135.419 325.776Z" fill="#263238"/>
<path d="M114.832 246.427H95.6621V300.305H114.832V246.427Z" fill="white" stroke="#263238" stroke-miterlimit="10" stroke-linecap="round" stroke-linejoin="round"/>
<path d="M112.796 246.427H93.626V300.305H112.796V246.427Z" fill="white" stroke="#263238" stroke-miterlimit="10" stroke-linecap="round" stroke-linejoin="round"/>
<path d="M112.796 278.804H93.626V291.198H112.796V278.804Z" fill="#263238" stroke="#263238" stroke-miterlimit="10" stroke-linecap="round" stroke-linejoin="round"/>
<path d="M118.344 299.973H90.7393V302.829H118.344V299.973Z" fill="white" stroke="#263238" stroke-miterlimit="10" stroke-linecap="round" stroke-linejoin="round"/>
<path d="M114.313 299.973H86.708V302.829H114.313V299.973Z" fill="white" stroke="#263238" stroke-miterlimit="10" stroke-linecap="round" stroke-linejoin="round"/>
<path d="M129.403 288.08H77.0182C74.9322 288.08 73.2412 286.389 73.2412 284.303V250.204C73.2412 248.118 74.9322 246.427 77.0182 246.427H129.404C131.49 246.427 133.181 248.118 133.181 250.204V284.303C133.18 286.389 131.489 288.08 129.403 288.08Z" fill="#263238" stroke="#263238" stroke-miterlimit="10" stroke-linecap="round" stroke-linejoin="round"/>
<path d="M131.949 288.08H79.5631C77.4771 288.08 75.7861 286.389 75.7861 284.303V250.204C75.7861 248.118 77.4771 246.427 79.5631 246.427H131.949C134.035 246.427 135.726 248.118 135.726 250.204V284.303C135.726 286.389 134.035 288.08 131.949 288.08Z" fill="#263238" stroke="#263238" stroke-miterlimit="10" stroke-linecap="round" stroke-linejoin="round"/>
<path d="M73.2412 279.613V284.302C73.2412 286.388 74.9322 288.079 77.0182 288.079H129.404C131.49 288.079 133.181 286.388 133.181 284.302V279.613H73.2412Z" fill="white" stroke="#263238" stroke-miterlimit="10" stroke-linecap="round" stroke-linejoin="round"/>
<path d="M127.778 358.566C127.778 358.566 123.323 353.504 120.691 351.681C119.104 350.582 117.076 348.601 115.715 347.2C114.364 345.809 112.211 345.42 110.556 346.431C110.142 346.684 109.733 347.01 109.352 347.429C107.327 349.656 103.277 356.541 103.277 358.363C103.277 360.185 106.922 363.628 106.922 363.628C106.922 363.628 114.009 369.905 117.654 371.525C121.299 373.145 126.564 374.562 126.564 374.562C126.564 374.562 130.006 373.55 131.019 369.5C132.03 365.451 127.778 358.566 127.778 358.566Z" fill="#263238" stroke="#263238" stroke-miterlimit="10" stroke-linecap="round" stroke-linejoin="round"/>
<path d="M120.691 363.021C119.511 366.897 121.553 371.743 122.272 373.263C124.616 374.037 126.563 374.562 126.563 374.562C126.563 374.562 130.006 373.549 131.019 369.5C132.031 365.45 127.778 358.566 127.778 358.566C126.968 359.376 122.108 358.363 120.691 363.021Z" fill="white" stroke="#263238" stroke-miterlimit="10" stroke-linecap="round" stroke-linejoin="round"/>
<path d="M251.296 369.095C251.296 369.095 249.879 374.967 249.271 377.194C248.663 379.421 248.056 385.901 248.056 385.901C248.056 385.901 252.511 388.736 255.953 389.343C259.395 389.951 257.775 389.343 257.775 389.343L259.395 387.521C259.395 387.521 261.622 387.926 263.445 389.546C265.267 391.166 268.912 391.976 272.152 392.583C275.392 393.191 288.149 394.405 290.376 393.191C292.603 391.976 293.818 391.166 293.413 390.559C293.008 389.952 289.971 388.534 285.111 385.902C280.251 383.27 270.532 375.373 269.519 373.145C268.507 370.918 268.507 370.918 268.507 370.918C268.507 370.918 257.573 370.918 251.296 369.095Z" fill="#263238" stroke="#263238" stroke-miterlimit="10" stroke-linecap="round" stroke-linejoin="round"/>
<path d="M359.419 279.776H280.91V345.309H359.419V279.776Z" fill="#263238" stroke="#263238" stroke-miterlimit="10" stroke-linecap="round" stroke-linejoin="round"/>
<path d="M313.767 252.895C313.767 252.895 322.737 259.062 323.298 259.436C323.859 259.81 327.596 271.77 327.596 271.77C327.596 271.77 328.904 275.694 326.101 276.442C323.298 277.189 313.58 278.871 313.58 278.871C313.58 278.871 307.787 270.088 307.787 267.845C307.787 265.603 308.534 262.612 308.534 262.612L313.767 252.895Z" fill="white" stroke="#263238" stroke-miterlimit="10" stroke-linecap="round" stroke-linejoin="round"/>
<path d="M331.836 279.918H328.836V272.946C328.836 272.75 328.677 272.591 328.481 272.591H308.652C308.456 272.591 308.297 272.75 308.297 272.946V279.721H305.297V272.946C305.297 271.095 306.802 269.591 308.652 269.591H328.481C330.332 269.591 331.836 271.096 331.836 272.946V279.918Z" fill="#263238"/>
<path d="M288.352 229.349L309.469 247.663L301.807 261.492L274.896 244.112L288.352 229.349Z" fill="#92E3A9" stroke="#263238" stroke-miterlimit="10" stroke-linecap="round" stroke-linejoin="round"/>
<path d="M288.274 232.242L285.642 250.723L277.207 246.336L288.274 232.242Z" fill="#263238" stroke="#263238" stroke-miterlimit="10" stroke-linecap="round" stroke-linejoin="round"/>
<path d="M309.47 247.663L315.076 253.082L308.535 262.613L303.303 258.689L309.47 247.663Z" fill="white" stroke="#263238" stroke-miterlimit="10" stroke-linecap="round" stroke-linejoin="round"/>
<path d="M172.934 302.072C172.934 302.072 177.591 347.834 178.806 352.491C180.021 357.148 180.426 359.781 180.426 359.781C180.426 359.781 177.186 359.174 177.186 360.186C177.186 361.198 177.186 361.198 177.186 361.198L127.779 358.566C127.779 358.566 124.539 361.603 124.742 365.653C124.944 369.703 126.564 374.562 126.564 374.562C126.564 374.562 143.37 378.814 164.834 382.256C186.298 385.698 187.918 386.711 189.942 386.711C191.967 386.711 200.269 387.116 203.509 383.066C206.749 379.016 209.584 376.789 210.394 370.107C211.204 363.425 221.531 296.402 221.531 296.402L265.876 298.629L250.082 370.512C250.082 370.512 255.752 374.359 259.801 374.562C263.851 374.765 271.14 374.157 271.14 374.157C271.14 374.157 271.747 371.727 271.747 370.107C271.747 368.487 271.747 366.057 271.747 366.057C271.747 366.057 295.033 305.108 297.665 297.616C300.297 290.124 305.36 277.975 304.347 272.305C303.335 266.635 264.862 261.168 261.622 261.168C258.382 261.168 194.194 309.158 192.169 309.765C190.145 310.374 172.934 302.072 172.934 302.072Z" fill="#92E3A9" stroke="#263238" stroke-miterlimit="10" stroke-linecap="round" stroke-linejoin="round"/>
<path d="M183.074 362.737C183.074 362.737 186.785 367.798 191.171 369.485" stroke="#263238" stroke-miterlimit="10" stroke-linecap="round" stroke-linejoin="round"/>
<path d="M177.186 361.198C177.186 361.198 179.026 369.147 185.099 372.184" stroke="#263238" stroke-miterlimit="10" stroke-linecap="round" stroke-linejoin="round"/>
<path d="M261.622 261.17L247.854 297.958H230.646L261.622 261.17Z" fill="#263238" stroke="#263238" stroke-miterlimit="10" stroke-linecap="round" stroke-linejoin="round"/>
<path d="M270.208 179.024C270.208 179.024 233.516 186.867 222.592 194.149C211.668 201.431 178.757 240.784 170.215 252.548C161.672 264.312 156.911 272.155 156.911 272.155C156.911 272.155 158.591 293.862 167.975 305.206C177.358 316.55 185.341 326.913 186.741 326.353C188.141 325.793 217.131 304.926 220.492 300.724C223.853 296.523 231.416 301.704 244.02 286.299C256.624 270.894 273.15 251.427 273.15 251.427C273.15 251.427 282.673 238.543 288.275 232.241C293.877 225.939 297.938 217.256 298.918 209.133C299.898 201.01 294.016 189.246 286.734 183.364C279.451 177.483 270.208 179.024 270.208 179.024Z" fill="#92E3A9" stroke="#263238" stroke-miterlimit="10" stroke-linecap="round" stroke-linejoin="round"/>
<path d="M196.827 290.307L181.235 272.711L185.082 269.471L204.521 290.935" stroke="#263238" stroke-miterlimit="10" stroke-linecap="round" stroke-linejoin="round"/>
<path d="M203.306 297.617L200.134 294.039" stroke="#263238" stroke-miterlimit="10" stroke-linecap="round" stroke-linejoin="round"/>
<path d="M265.672 180.58C265.672 180.58 260.61 188.679 257.167 197.184C253.725 205.689 251.092 214.193 251.092 214.193C251.092 214.193 257.167 216.623 257.774 216.623C258.382 216.623 250.282 224.52 250.282 224.52C250.282 224.52 249.472 233.43 252.104 241.732C254.736 250.034 255.546 254.286 255.546 254.286L260.001 250.844" stroke="#263238" stroke-miterlimit="10" stroke-linecap="round" stroke-linejoin="round"/>
<path d="M252.916 256.107L245.019 264.814" stroke="#263238" stroke-miterlimit="10" stroke-linecap="round" stroke-linejoin="round"/>
<path d="M265.446 196.249C265.446 196.249 262.785 213.195 261.805 223.558C260.825 233.921 261.525 249.327 261.525 249.327C261.525 249.327 278.331 233.782 280.851 229.02C283.372 224.258 285.052 217.816 285.052 217.816C285.052 217.816 279.31 207.313 277.349 203.391C275.389 199.471 270.768 189.247 265.446 196.249Z" fill="white" stroke="#263238" stroke-miterlimit="10" stroke-linecap="round" stroke-linejoin="round"/>
<path d="M269.929 221.598L273.01 233.502L264.187 301.985L271.889 313.188L279.312 302.125L275.53 233.502L282.673 221.598L277.631 213.195L269.929 221.598Z" fill="#263238" stroke="#263238" stroke-miterlimit="10" stroke-linecap="round" stroke-linejoin="round"/>
<path d="M276.371 217.117L264.747 227.34C264.747 227.34 263.207 224.539 264.047 211.795C264.887 199.051 266.848 187.707 268.388 182.945C269.929 178.183 270.909 177.483 270.909 177.483C270.909 177.483 273.29 197.65 275.25 201.851C277.211 206.052 290.095 213.615 290.095 213.615C290.095 213.615 287.854 223.278 286.734 225.379C285.614 227.48 284.913 229.44 284.913 229.44L276.371 217.117Z" fill="white" stroke="#263238" stroke-miterlimit="10" stroke-linecap="round" stroke-linejoin="round"/>
<path d="M270.208 179.024C270.208 179.024 268.667 191.908 270.208 198.77C271.748 205.632 276.37 217.116 276.37 217.116L296.817 210.114L298.918 209.134C298.918 209.134 297.378 208.294 289.955 202.132C282.533 195.97 281.972 195.13 281.412 189.668C280.852 184.206 280.152 180.425 277.071 177.764C273.989 175.102 270.768 178.184 270.208 179.024Z" fill="white" stroke="#263238" stroke-miterlimit="10" stroke-linecap="round" stroke-linejoin="round"/>
<path d="M282.378 200.387L286.828 213.46L298.917 209.134L282.378 200.387Z" fill="#263238" stroke="#263238" stroke-miterlimit="10" stroke-linecap="round" stroke-linejoin="round"/>
<path d="M239.49 384.716L245.565 389.981C245.565 389.981 252.652 393.018 251.032 393.828C249.412 394.638 245.565 393.018 243.945 392.006C242.325 390.994 240.908 390.386 240.908 390.386L239.49 384.716Z" fill="white" stroke="#263238" stroke-miterlimit="10" stroke-linecap="round" stroke-linejoin="round"/>
<path d="M233.264 360.612C233.264 360.612 232.2 365.076 237.87 380.465C239.976 386.181 246.375 397.879 248.197 399.904C250.019 401.929 252.854 403.346 251.032 403.751C249.21 404.156 247.995 402.536 245.767 401.119C243.54 399.702 239.692 393.627 239.692 393.627C239.692 393.627 242.932 400.107 244.349 402.537C245.766 404.967 247.791 408.207 247.791 408.207C247.791 408.207 247.184 409.827 244.551 407.802C241.919 405.777 240.501 402.74 239.286 401.12C238.071 399.5 236.856 397.273 236.856 397.273C236.856 397.273 239.488 405.17 240.298 406.79C241.108 408.41 239.286 409.422 238.273 407.803C237.26 406.184 236.186 405.605 235.781 404.39C235.376 403.175 235.029 405.799 231.591 398.691C229.704 394.79 224.706 389.174 222.479 383.707C220.252 378.24 220.252 380.67 220.049 376.215C219.847 371.76 220.251 363.458 220.251 363.458L233.264 360.612Z" fill="white" stroke="#263238" stroke-miterlimit="10" stroke-linecap="round" stroke-linejoin="round"/>
<path d="M235.585 403.997C235.585 403.997 235.035 399.7 234.428 397.878C233.821 396.056 231.145 392.181 231.145 392.181" stroke="#263238" stroke-miterlimit="10" stroke-linecap="round" stroke-linejoin="round"/>
<path d="M236.857 397.271L234.022 391.399" stroke="#263238" stroke-miterlimit="10" stroke-linecap="round" stroke-linejoin="round"/>
<path d="M239.692 393.626L237.668 388.969" stroke="#263238" stroke-miterlimit="10" stroke-linecap="round" stroke-linejoin="round"/>
<path d="M216.811 354.951L217.216 365.48C217.216 365.48 222.683 367.302 226.328 367.302C229.973 367.302 234.832 367.099 234.832 367.099L234.63 355.76L216.811 354.951Z" fill="white" stroke="#263238" stroke-miterlimit="10" stroke-linecap="round" stroke-linejoin="round"/>
<path d="M221.935 210.345C221.935 210.345 213.025 229.379 212.013 234.441C211.001 239.503 208.976 276.558 208.571 283.645C208.166 290.732 212.761 357.178 212.761 357.178C212.761 357.178 218.836 358.798 224.91 359C230.985 359.202 236.047 357.785 236.047 357.785C236.047 357.785 240.969 277.57 241.374 274.938C241.779 272.306 241.172 270.078 241.172 265.826C241.172 261.574 244.817 233.225 244.817 233.225C244.817 233.225 242.792 217.431 238.54 211.356" fill="#92E3A9"/>
<path d="M221.935 210.345C221.935 210.345 213.025 229.379 212.013 234.441C211.001 239.503 208.976 276.558 208.571 283.645C208.166 290.732 212.761 357.178 212.761 357.178C212.761 357.178 218.836 358.798 224.91 359C230.985 359.202 236.047 357.785 236.047 357.785C236.047 357.785 240.969 277.57 241.374 274.938C241.779 272.306 241.172 270.078 241.172 265.826C241.172 261.574 244.817 233.225 244.817 233.225C244.817 233.225 242.792 217.431 238.54 211.356" stroke="#263238" stroke-miterlimit="10" stroke-linecap="round" stroke-linejoin="round"/>
<path d="M217.277 227.152C217.277 227.152 221.934 244.161 233.678 255.095" stroke="#263238" stroke-miterlimit="10" stroke-linecap="round" stroke-linejoin="round"/>
<path d="M231.967 266.216C233.31 267.352 234.697 268.266 236.109 268.864" stroke="#263238" stroke-miterlimit="10" stroke-linecap="round" stroke-linejoin="round"/>
<path d="M216.468 242.338C216.468 242.338 221.558 254.667 228.525 262.755" stroke="#263238" stroke-miterlimit="10" stroke-linecap="round" stroke-linejoin="round"/>
<path d="M312.461 274.122C312.461 274.122 309.978 270.576 308.914 271.403C307.85 272.23 309.623 276.723 310.687 277.668C311.751 278.614 313.406 277.55 313.406 277.55L312.461 274.122Z" fill="white" stroke="#263238" stroke-miterlimit="10" stroke-linecap="round" stroke-linejoin="round"/>
<path d="M315.417 270.458C315.417 270.458 313.526 267.857 311.752 269.158C309.979 270.458 312.579 276.724 313.407 277.551C314.234 278.378 315.18 278.851 316.599 278.97C318.018 279.088 319.436 278.615 319.436 278.615L315.417 270.458Z" fill="white" stroke="#263238" stroke-miterlimit="10" stroke-linecap="round" stroke-linejoin="round"/>
<path d="M318.608 269.63C318.608 269.63 316.881 266.202 315.262 266.911C313.643 267.62 314.943 270.812 315.652 272.349C316.361 273.886 318.962 278.26 319.435 278.614C319.908 278.969 322.745 279.087 323.1 277.905C323.455 276.723 323.336 275.186 323.336 275.186L318.608 269.63Z" fill="white" stroke="#263238" stroke-miterlimit="10" stroke-linecap="round" stroke-linejoin="round"/>
<path d="M326.055 274.004C326.055 274.004 321.799 267.857 320.617 267.62C319.435 267.384 318.371 269.039 318.607 269.63C318.844 270.221 322.626 276.487 323.454 276.723C324.282 276.959 325.082 277.344 326.1 276.442" fill="white"/>
<path d="M326.055 274.004C326.055 274.004 321.799 267.857 320.617 267.62C319.435 267.384 318.371 269.039 318.607 269.63C318.844 270.221 322.626 276.487 323.454 276.723C324.282 276.959 325.082 277.344 326.1 276.442" stroke="#263238" stroke-miterlimit="10" stroke-linecap="round" stroke-linejoin="round"/>
<path d="M314.702 261.492C314.702 261.492 314.515 265.79 315.263 266.911C316.01 268.032 318.066 271.022 318.066 271.022C318.066 271.022 311.338 273.451 312.273 274.946C313.207 276.441 319.561 274.572 321.243 274.012C322.925 273.451 324.046 273.638 324.42 271.022C324.794 268.406 323.486 262.986 323.486 262.986" fill="white"/>
<path d="M314.702 261.492C314.702 261.492 314.515 265.79 315.263 266.911C316.01 268.032 318.066 271.022 318.066 271.022C318.066 271.022 311.338 273.451 312.273 274.946C313.207 276.441 319.561 274.572 321.243 274.012C322.925 273.451 324.046 273.638 324.42 271.022C324.794 268.406 323.486 262.986 323.486 262.986" stroke="#263238" stroke-miterlimit="10" stroke-linecap="round" stroke-linejoin="round"/>
<path d="M315.825 188.352L308.252 187.991C306.903 187.927 305.862 186.781 305.926 185.432L306.101 181.761C306.165 180.412 307.311 179.371 308.659 179.435L316.232 179.796C317.581 179.86 318.622 181.006 318.558 182.354L318.383 186.025C318.32 187.375 317.174 188.416 315.825 188.352Z" stroke="#263238" stroke-miterlimit="10" stroke-linecap="round" stroke-linejoin="round"/>
<path d="M313.655 163.874C313.655 163.874 314.891 163.009 314.767 161.897C314.643 160.785 313.902 156.336 308.959 152.135C304.016 147.934 294.501 143.979 286.222 145.339C277.943 146.698 271.764 154.73 270.281 158.932C268.798 163.133 269.787 175.738 269.787 177.22C269.787 178.702 271.641 183.275 273.494 183.769C275.348 184.263 274.359 177.467 276.089 178.703C277.819 179.939 282.515 184.882 284.245 182.904C285.975 180.927 286.469 176.108 287.952 175.86C289.435 175.613 295.119 173.141 294.748 170.67C294.377 168.199 291.535 162.144 294.377 161.155C297.219 160.166 301.421 163.503 307.105 163.997C312.79 164.492 313.655 163.874 313.655 163.874Z" fill="#263238" stroke="#263238" stroke-miterlimit="10" stroke-linecap="round" stroke-linejoin="round"/>
<path d="M283.627 180.309C283.627 180.309 281.897 180.185 281.65 179.815C281.403 179.444 279.055 174.131 276.46 173.76C273.865 173.389 272.629 181.174 273.989 185.376C275.348 189.577 279.055 189.454 279.055 189.454C279.055 189.454 279.179 200.452 282.515 202.676C285.851 204.9 300.68 213.55 303.522 213.303C306.364 213.056 307.6 210.461 307.971 208.36C308.342 206.259 308.218 205.641 308.342 204.9C308.466 204.159 310.813 195.509 310.813 195.509C310.813 195.509 315.632 194.521 315.756 193.903C315.88 193.285 313.161 182.658 313.161 182.658C313.161 182.658 315.262 180.063 315.385 178.951C315.509 177.839 315.509 169.436 315.014 167.459C314.52 165.482 311.925 160.415 310.936 160.786C309.947 161.157 308.341 161.033 307.352 160.415C306.364 159.797 296.725 156.214 294.501 156.337C292.277 156.46 288.075 159.179 287.705 161.527C287.334 163.875 291.165 167.582 291.412 169.312C291.659 171.042 285.481 172.278 285.357 173.143C285.234 174.007 284.74 179.567 283.627 180.309Z" fill="white" stroke="#263238" stroke-miterlimit="10" stroke-linecap="round" stroke-linejoin="round"/>
<path d="M307.04 200.591L304.099 199.751" stroke="#263238" stroke-miterlimit="10" stroke-linecap="round" stroke-linejoin="round"/>
<path d="M306.32 187.695L298.747 187.335C297.398 187.271 296.357 186.125 296.421 184.776L296.596 181.105C296.66 179.756 297.806 178.715 299.154 178.779L306.727 179.14C308.076 179.204 309.117 180.35 309.053 181.698L308.878 185.369C308.814 186.718 307.669 187.76 306.32 187.695Z" stroke="#263238" stroke-miterlimit="10" stroke-linecap="round" stroke-linejoin="round"/>
<path d="M303.952 183.541C303.819 184.499 303.369 185.227 302.948 185.169C302.527 185.11 302.293 184.287 302.426 183.329C302.559 182.371 303.009 181.643 303.43 181.701C303.851 181.76 304.085 182.584 303.952 183.541Z" fill="#263238"/>
<path d="M298.917 177.203C298.917 177.203 304.401 176.582 306.727 179.14" stroke="#263238" stroke-miterlimit="10" stroke-linecap="round" stroke-linejoin="round"/>
<path d="M296.596 181.106L280.991 177.763" stroke="#263238" stroke-miterlimit="10" stroke-linecap="round" stroke-linejoin="round"/>
<path d="M309.053 181.699C309.053 181.699 311.43 180.038 313.429 181.815" stroke="#263238" stroke-miterlimit="10" stroke-linecap="round" stroke-linejoin="round"/>
<path d="M307.91 179.436L314.857 179.912" stroke="#263238" stroke-miterlimit="10" stroke-linecap="round" stroke-linejoin="round"/>
<path d="M435.163 337.577L91.417 472.592" stroke="#263238" stroke-miterlimit="10" stroke-linecap="round" stroke-linejoin="round"/>
<path d="M444.955 347.2L108.488 480.352" stroke="#263238" stroke-miterlimit="10" stroke-linecap="round" stroke-linejoin="round"/>
</svg>
