<svg width="445" height="420" viewBox="0 0 445 420" fill="none" xmlns="http://www.w3.org/2000/svg">
<path d="M308.158 42.074C301.241 38.529 294.492 34.801 288.117 30.675C279.068 24.818 270.5 19.279 260.158 14.97C224.934 0.29704 184.628 -2.09696 146.419 2.99304C145.903 3.06304 145.386 3.13304 144.87 3.20304C40.8555 17.602 7.06752 87.296 9.05452 127.038C9.88252 143.599 15.2075 159.592 18.5585 175.826C21.9155 192.088 21.3395 205.033 17.0275 221.131C7.60452 256.314 -4.64448 293.957 3.19952 330.271C18.1265 399.378 115.651 410.977 181.425 417.396C212.748 420.453 247.142 421.162 276.798 409.605C312.405 395.728 327.581 364.617 351.109 340.037C378.4 311.527 414.142 287.619 431.295 252.89C444.879 225.388 448.099 194.578 440.728 165.363C429.639 121.408 395.77 88.623 353.316 64.695C338.875 56.557 323.124 49.743 308.158 42.074Z" fill="#92E3A9"/>
<path opacity="0.7" d="M308.158 42.074C301.241 38.529 294.492 34.801 288.117 30.675C279.068 24.818 270.5 19.279 260.158 14.97C224.934 0.29704 184.628 -2.09696 146.419 2.99304C145.903 3.06304 145.386 3.13304 144.87 3.20304C40.8555 17.602 7.06752 87.296 9.05452 127.038C9.88252 143.599 15.2075 159.592 18.5585 175.826C21.9155 192.088 21.3395 205.033 17.0275 221.131C7.60452 256.314 -4.64448 293.957 3.19952 330.271C18.1265 399.378 115.651 410.977 181.425 417.396C212.748 420.453 247.142 421.162 276.798 409.605C312.405 395.728 327.581 364.617 351.109 340.037C378.4 311.527 414.142 287.619 431.295 252.89C444.879 225.388 448.099 194.578 440.728 165.363C429.639 121.408 395.77 88.623 353.316 64.695C338.875 56.557 323.124 49.743 308.158 42.074Z" fill="white"/>
</svg>
