<svg width="500" height="500" viewBox="0 0 500 500" fill="none" xmlns="http://www.w3.org/2000/svg">
<path d="M340.158 84.074C333.241 80.529 326.492 76.801 320.117 72.675C311.068 66.818 302.5 61.279 292.158 56.97C256.934 42.297 216.628 39.903 178.419 44.993C177.903 45.063 177.386 45.133 176.87 45.203C72.8555 59.602 39.0675 129.296 41.0545 169.038C41.8825 185.599 47.2075 201.592 50.5585 217.826C53.9155 234.088 53.3395 247.033 49.0275 263.131C39.6045 298.314 27.3555 335.957 35.1995 372.271C50.1265 441.378 147.651 452.977 213.425 459.396C244.748 462.453 279.142 463.162 308.798 451.605C344.405 437.728 359.581 406.617 383.109 382.037C410.4 353.527 446.142 329.619 463.295 294.89C476.879 267.388 480.099 236.578 472.728 207.363C461.639 163.408 427.77 130.623 385.316 106.695C370.875 98.557 355.124 91.743 340.158 84.074Z" fill="#92E3A9"/>
<path opacity="0.7" d="M340.158 84.074C333.241 80.529 326.492 76.801 320.117 72.675C311.068 66.818 302.5 61.279 292.158 56.97C256.934 42.297 216.628 39.903 178.419 44.993C177.903 45.063 177.386 45.133 176.87 45.203C72.8555 59.602 39.0675 129.296 41.0545 169.038C41.8825 185.599 47.2075 201.592 50.5585 217.826C53.9155 234.088 53.3395 247.033 49.0275 263.131C39.6045 298.314 27.3555 335.957 35.1995 372.271C50.1265 441.378 147.651 452.977 213.425 459.396C244.748 462.453 279.142 463.162 308.798 451.605C344.405 437.728 359.581 406.617 383.109 382.037C410.4 353.527 446.142 329.619 463.295 294.89C476.879 267.388 480.099 236.578 472.728 207.363C461.639 163.408 427.77 130.623 385.316 106.695C370.875 98.557 355.124 91.743 340.158 84.074Z" fill="white"/>
<g opacity="0.3">
<path d="M96.0935 328.441C96.0745 328.278 96.0635 328.105 96.0605 327.92C96.0115 323.956 94.5415 321.212 90.9505 319.128C84.2225 315.221 80.3155 319.128 78.3625 322.601C76.4095 326.074 73.3705 320.431 68.5955 321.082C63.8205 321.733 64.0375 326.942 62.7355 329.764C61.4335 332.586 58.6115 328.896 54.9225 329.547C51.2325 330.198 51.0155 332.369 50.3645 333.237C49.7135 334.105 43.8535 331.935 40.5975 333.671C37.3415 335.407 35.6055 338.663 35.6055 338.663H106.794C106.794 338.663 107.662 333.456 104.842 331.502C102.312 329.747 96.5795 332.55 96.0935 328.441Z" stroke="black" stroke-miterlimit="10" stroke-linecap="round" stroke-linejoin="round"/>
<path d="M63.0497 334.935C62.7967 335.006 62.5707 335.111 62.3907 335.269C61.4727 336.072 61.4727 336.646 61.4727 336.646" stroke="black" stroke-miterlimit="10" stroke-linecap="round" stroke-linejoin="round"/>
<path d="M78.7733 328.196C78.1413 329.581 77.5823 331.102 76.2753 331.712C74.4093 332.583 72.6643 330.614 70.9443 330.169C69.8413 329.884 68.9753 330.134 68.2143 331.004C67.4393 331.89 67.4273 333.899 66.4073 334.465C65.9113 334.74 65.1783 334.751 64.4473 334.777" stroke="black" stroke-miterlimit="10" stroke-linecap="round" stroke-linejoin="round"/>
<path d="M99.963 334.606C99.912 334.479 99.857 334.355 99.798 334.236C98.43 331.5 95.194 333.699 93.205 332.932C91.437 332.251 92.017 329.457 91.779 327.997C91.319 325.173 87.77 323.017 84.995 323.45C82.948 323.77 81.065 324.909 79.75 326.499" stroke="black" stroke-miterlimit="10" stroke-linecap="round" stroke-linejoin="round"/>
<path d="M100.523 337.113C100.477 336.679 100.404 336.174 100.287 335.668" stroke="black" stroke-miterlimit="10" stroke-linecap="round" stroke-linejoin="round"/>
</g>
<g opacity="0.3">
<path d="M367.259 380.438C367.233 380.221 367.218 379.989 367.215 379.741C367.149 374.435 365.181 370.764 360.376 367.973C351.371 362.744 346.142 367.973 343.528 372.621C340.914 377.269 336.847 369.716 330.456 370.588C324.065 371.459 324.356 378.431 322.613 382.207C320.87 385.983 317.094 381.045 312.156 381.917C307.218 382.788 306.927 385.693 306.056 386.855C305.184 388.017 297.342 385.112 292.984 387.436C288.627 389.76 286.303 394.117 286.303 394.117H381.581C381.581 394.117 382.743 387.148 378.968 384.532C375.583 382.187 367.909 385.938 367.259 380.438Z" stroke="black" stroke-miterlimit="10" stroke-linecap="round" stroke-linejoin="round"/>
<path d="M323.033 389.131C322.694 389.226 322.393 389.366 322.15 389.578C320.922 390.653 320.922 391.421 320.922 391.421" stroke="black" stroke-miterlimit="10" stroke-linecap="round" stroke-linejoin="round"/>
<path d="M344.077 380.11C343.231 381.963 342.482 383.999 340.734 384.816C338.237 385.983 335.902 383.346 333.599 382.752C332.123 382.371 330.963 382.706 329.945 383.87C328.908 385.055 328.892 387.744 327.527 388.503C326.864 388.871 325.882 388.886 324.904 388.921" stroke="black" stroke-miterlimit="10" stroke-linecap="round" stroke-linejoin="round"/>
<path d="M372.438 388.69C372.37 388.52 372.296 388.354 372.217 388.195C370.387 384.534 366.056 387.476 363.393 386.45C361.027 385.538 361.803 381.799 361.485 379.845C360.87 376.065 356.119 373.179 352.406 373.759C349.667 374.187 347.146 375.712 345.387 377.84" stroke="black" stroke-miterlimit="10" stroke-linecap="round" stroke-linejoin="round"/>
<path d="M373.187 392.045C373.125 391.464 373.027 390.788 372.871 390.11" stroke="black" stroke-miterlimit="10" stroke-linecap="round" stroke-linejoin="round"/>
</g>
<g opacity="0.3">
<path d="M171.373 214.186C171.653 215.37 172.006 216.383 172.006 216.383L171.373 214.186Z" fill="black"/>
<path d="M12.6641 168.725L21.2551 168.719L17.6811 171.322L27.7351 170.642L20.7761 180.399L30.0611 175.981L27.6271 182.832L35.0971 172.703L33.1301 182.34L31.3461 187.937L37.4921 177.6L36.3381 187.817L40.2991 180.166L42.8311 175.274L46.8961 178.174L44.3931 185.467L51.4031 181.144L47.2991 189.993L55.6321 185.878L49.5551 195.774L57.3531 189.314L54.7801 197.048L62.8111 191.981L61.4931 200.364L65.2001 188.287L66.2961 195.693L67.7781 189.144L67.5761 199.059L74.3971 190.185L72.9401 199.451L73.9391 197.444L76.9051 191.484L79.5971 188.742L79.5081 195.058L76.2171 204.487L63.5221 213.342C63.5221 213.342 32.9811 237.928 29.5271 245.524C26.0721 253.119 23.1341 268.933 22.9511 272.974C22.7681 277.014 22.9121 284.723 22.9121 284.723L29.6331 264.982L29.5761 267.431L29.4751 271.739L32.9741 260.986L36.8701 253.46L37.0141 261.169L43.1801 244.958L42.5811 251.646L46.5911 240.521L45.6451 249.415L51.6971 236.803L50.6811 246.138L52.4501 241.122L54.7601 234.572C54.7601 234.572 45.5171 267.48 45.3591 274.237C45.2011 280.994 44.5321 288.123 44.5321 288.123L54.8771 271.212C54.8771 271.212 57.1971 267.96 55.9421 267.31C54.6881 266.661 59.0051 265.079 59.0051 265.079L55.7531 262.759L63.6701 261.291L56.7941 256.141L64.3641 256.879L61.3891 252.794L66.2421 253.557L64.5211 250.122L68.4921 250.746L65.3541 244.827L71.9721 245.867L67.4411 240.181L72.0861 242.268L71.1791 239.413L77.2871 240.825L71.9871 231.401L78.0251 233.255L74.6781 228.66L80.0421 229.051L77.7171 223.712L83.0811 224.103L80.3141 218.695L84.9591 220.782L85.9551 217.322L86.0691 213.723C88.0171 209.96 87.0401 207.546 87.0401 207.546L90.1981 207.59C90.1981 207.59 82.1151 238.872 81.4711 248.718C80.8271 258.563 79.9921 295.507 82.1101 302.169C84.0411 308.247 86.8261 320.847 87.3001 323.015C86.1012 340.138 85.1481 353.687 84.8721 357.466C84.3031 365.264 80.1371 419.191 77.0341 459.277H85.6651L92.1181 365.521C92.1181 365.521 94.0931 336.041 93.6191 322.136C93.1891 309.495 96.1921 266.627 98.0911 250.354L99.1701 256.926C99.1701 256.926 98.5521 261.856 97.9881 266.266C97.5951 269.337 97.2281 272.155 97.1141 272.88C96.8361 274.645 103.216 265.701 103.216 265.701L101.293 272.957L99.8801 278.288L98.5181 289.829L103.921 278.471L102.256 289.06L105.131 282.278L102.47 296.327L108.036 286.803L104.215 302.479L106.187 299.715L110.015 294.349L106.957 305.171L112.202 300.57L111.37 305.864L113.69 302.612L112.58 309.671L116.873 305.373L120.314 312.244L120.006 302.701L123.605 302.815L119.212 296.247L116.887 290.908L120.581 293.297L116.049 287.611L120.089 287.794L117.808 279.297L120.688 281.106L112.532 272.59L122.125 277.715L118.173 271.216L121.028 270.308L113.244 262.303L123.953 268.96L119.441 257.4L122.46 258.327L120.515 254.35L120.065 253.43L117.551 243.54L121.011 244.536L115.969 239.222L115.037 233.65L111.898 227.731L119.726 232.579L111.06 224.435L119.468 228.47L125.89 248.017L124.572 256.4L131.279 251.125L129.173 261.645L134.998 256.231L132.218 265.289L136 261.362L133.011 271.743L138.81 263.612L137.517 274.712L141.344 267.627L139.679 278.216L144.829 271.34L143.233 281.488L147.501 274.473L145.534 284.11L151.334 275.979L149.808 285.686C149.808 285.686 155.746 276.673 155.91 278.507C156.074 280.341 154.478 290.489 154.478 290.489L157.308 286.865L156.986 291.788C156.986 291.788 158.94 296.616 159.614 298.079C160.288 299.542 165.286 308.013 165.286 308.013C165.286 308.013 164.695 291.644 164.159 289.299C163.624 286.954 158.134 272.98 158.134 272.98L154.996 267.061L160.99 272.072L155.69 262.648L161.079 265.756L153.062 256.357L156.522 257.353L148.971 250.74L156.125 254.125L146.904 249.51L152.545 248.136L146.482 243.566C146.482 243.566 151.544 243.005 149.476 241.776C147.409 240.547 145.783 239.387 145.783 239.387L152.912 240.056L146.174 234.023L151.027 234.786L139.436 227.99C139.436 227.99 137.136 225.368 134.766 223.187C132.396 221.006 127.657 216.644 124.845 214.393C122.034 212.142 116.922 207.27 116.922 207.27L123.193 210.517L132.509 217.407L131.671 214.111L131.041 209.491L134.085 213.135L134.804 211.44L138.592 216.104L139.727 211.761L141.214 213.803C141.214 213.803 141.095 208.811 142.349 209.46C143.603 210.109 144.441 213.406 144.441 213.406L147.385 206.183L149.988 209.757L151.797 206.877L153.795 208.548L157.197 227.168L158.723 217.461L160.355 227.212L163.482 215.948L166.601 227.742L168.688 223.097L170.403 217.941L169.956 209.28L171.371 214.187C170.957 212.433 170.707 210.302 172.024 210.509C174.23 210.856 175.906 217.449 175.906 217.449L175.623 210.623L180.016 217.191L180.03 212.912L180.035 211.316L188.116 211.682L170.556 202.591L176.096 203.462L182.122 206.67L184.278 201.583L173.128 194.857L177.168 195.04L165.533 191.402L154.339 187.834L153.193 174.994L160.466 183.372L159.484 172.366L166.48 182.508L167.004 167.67L171.586 178.789L172.671 169.013L177.782 173.886L179.358 169.613L185.188 172.79L183.467 169.355L191.037 170.093L183.556 163.039L188.271 164.685L191.94 164.357C191.94 164.357 186.69 160.367 184.925 160.089C183.16 159.812 156.485 165.564 156.485 165.564L150.636 168.261L137.979 165.367L144.661 157.375L137.904 157.217L141.919 154.683L151.809 152.169L146.956 151.406L153.247 148.778L149.787 147.782L160.446 149.006L165.854 146.239C165.854 146.239 159.885 143.944 152.479 145.04C145.073 146.136 135.069 152.25 133.607 152.924C132.145 153.598 134.906 150.415 134.906 150.415L130.122 149.211L137.806 146.35L134.276 145.795L145.559 143.048L135.411 141.452L146.416 140.47L138.449 136.505L149.202 140.004L137.17 133.139L149.896 135.592L138.91 130.7L152.449 133.733L147.268 129.301L153.956 129.9L150.332 127.069L154.372 127.252L161.06 127.851L155.299 124.233L159.478 123.534L157.549 121.422L162.843 122.254L154.435 118.219L156.452 114.015L151.321 115.017L151.737 112.37L147.999 113.139L147.533 110.353L143.448 113.328L141.727 109.893L139.224 117.186L136.394 120.81L134.887 124.642L134.787 113.775L131.244 127.686L130.4 115.798L127.179 124.786L125.478 115.476L124.299 122.977L118.583 116.201L128.492 107.812L119.277 111.789L121.105 103.034L117.209 110.56L113.452 117.203L114.909 107.937L111.895 115.601L107.691 113.584L106.606 123.36L101.331 116.653L101.639 126.196L97.8261 118.815L97.7621 127.848L95.3231 126.108L97.5351 135.046L93.7721 133.098L96.0281 138.878L93.7531 138.972C93.7531 138.972 93.4351 141.003 93.2071 143.042C92.6321 140.504 91.6851 137.743 91.6851 137.743L90.3171 140.693L87.9031 141.67L84.1351 131.131L89.4051 129.247L84.8981 126.278L88.3331 124.557L84.6401 122.168L87.4011 118.985L84.5901 116.734L84.1241 113.948L81.9871 113.16L85.5611 110.557L87.9251 104.147L83.5821 103.012L83.1851 99.785L80.3991 100.251L78.3071 96.305L76.4981 99.186L67.7181 94.641L75.5021 102.647L68.4171 98.82L73.3901 104.575L68.5371 103.812L76.9451 107.847L74.7641 110.217L68.5181 109.687L70.8181 112.309L65.8261 112.428L70.4271 117.673L61.8801 114.521L72.9851 124.405L59.8621 118.725L68.5281 126.869L61.8411 126.27L65.3261 129.983C65.3261 129.983 61.9381 129.622 59.6721 129.292C62.8821 130.531 68.8121 133.696 68.8121 133.696L62.6351 132.725L67.7471 137.598L62.5471 139.041L72.3291 148.717L63.7381 148.723L67.9421 150.74L62.4641 153.948L74.4021 158.538L65.3951 161.191L72.8961 162.37L68.2311 166.158L72.4721 165.857L74.1751 165.736L76.9171 168.428L74.1561 171.611L79.4511 172.444L76.8291 174.744C76.8291 174.744 64.6581 168.761 61.1981 167.765C57.7381 166.769 51.6991 164.915 48.0311 165.243C44.3631 165.57 39.7421 166.2 38.3491 166.434C36.9561 166.667 31.7311 165.394 28.1321 165.28C24.5331 165.166 15.6391 164.22 14.3151 164.012C12.9911 163.804 5.04915 162.555 3.72615 162.347C2.39715 162.137 12.6641 168.725 12.6641 168.725ZM87.4611 320.705L88.7601 282.868L90.0921 283.077C89.1992 295.863 88.2791 309.025 87.4611 320.705ZM90.2461 280.873L87.6891 278.179L90.4041 278.606C90.3521 279.36 90.2991 280.116 90.2461 280.873ZM90.5091 277.104L88.8931 273.395L90.7471 273.687C90.6691 274.819 90.5891 275.959 90.5091 277.104ZM91.0821 268.89L89.8641 267.218C89.8641 267.218 90.5041 267.548 91.1651 267.705C91.1381 268.098 91.1101 268.495 91.0821 268.89ZM91.5311 262.465C91.1931 261.406 90.9051 260.599 90.9051 260.599L91.6371 260.939C91.6021 261.447 91.5671 261.952 91.5311 262.465ZM91.7081 259.934L87.5591 256.004L91.8551 257.825C91.8061 258.523 91.7571 259.224 91.7081 259.934ZM92.0221 255.434L89.5761 251.8L92.2021 252.857C92.1422 253.705 92.0821 254.564 92.0221 255.434ZM90.5991 219.408C90.9461 217.202 91.7781 211.907 91.7781 211.907L94.0791 225.924C93.8031 229.89 93.2321 238.075 92.5021 248.536L90.5991 244.52L90.0101 243.277L87.7541 237.497L92.0971 238.632L90.9571 234.383L90.9071 228.95C90.9071 228.95 88.7951 230.879 89.1421 228.673C89.4891 226.468 90.2521 221.614 90.5991 219.408Z" fill="black"/>
<path d="M57.8236 128.804C57.2906 128.893 58.2666 129.087 59.6696 129.292C58.8016 128.956 58.1206 128.754 57.8236 128.804Z" fill="black"/>
</g>
<g opacity="0.3">
<path d="M330.168 297.076C330.353 297.859 330.587 298.53 330.587 298.53L330.168 297.076Z" fill="black"/>
<path d="M225.134 266.99L230.82 266.986L228.455 268.709L235.109 268.259L230.503 274.716L236.648 271.792L235.037 276.326L239.981 269.623L238.679 276.001L237.498 279.705L241.566 272.864L240.802 279.626L243.423 274.562L245.099 271.325L247.79 273.244L246.133 278.07L250.772 275.209L248.056 281.066L253.571 278.342L249.549 284.891L254.71 280.616L253.007 285.734L258.322 282.381L257.45 287.929L259.903 279.937L260.629 284.838L261.61 280.504L261.476 287.066L265.99 281.193L265.026 287.325L265.687 285.997L267.65 282.053L269.431 280.239L269.372 284.419L267.194 290.659L258.792 296.519C258.792 296.519 238.58 312.79 236.294 317.817C234.008 322.843 232.063 333.309 231.942 335.983C231.821 338.657 231.916 343.758 231.916 343.758L236.364 330.694L236.326 332.315L236.259 335.166L238.575 328.05L241.153 323.07L241.249 328.172L245.33 317.443L244.933 321.869L247.587 314.507L246.961 320.393L250.966 312.046L250.294 318.224L251.465 314.904L252.994 310.569C252.994 310.569 246.877 332.348 246.772 336.819C246.667 341.291 246.225 346.009 246.225 346.009L253.071 334.818C253.071 334.818 254.606 332.666 253.776 332.236C252.946 331.806 255.803 330.759 255.803 330.759L253.651 329.224L258.89 328.253L254.339 324.845L259.349 325.333L257.38 322.63L260.592 323.135L259.453 320.861L262.081 321.274L260.004 317.357L264.384 318.046L261.385 314.283L264.459 315.664L263.859 313.774L267.901 314.709L264.393 308.472L268.389 309.699L266.174 306.658L269.724 306.917L268.185 303.384L271.735 303.643L269.904 300.064L272.978 301.445L273.637 299.155L273.712 296.773C275.001 294.283 274.355 292.685 274.355 292.685L276.445 292.714C276.445 292.714 271.096 313.417 270.67 319.932C270.244 326.448 269.692 350.897 271.093 355.306C272.371 359.328 274.214 367.667 274.528 369.102C273.734 380.434 273.104 389.401 272.921 391.902C272.545 397.063 269.787 432.751 267.734 459.28H273.446L277.716 397.232C277.716 397.232 279.023 377.722 278.709 368.52C278.424 360.154 280.412 331.784 281.669 321.015L282.383 325.364C282.383 325.364 281.974 328.627 281.601 331.545C281.341 333.577 281.098 335.442 281.023 335.922C280.839 337.09 285.061 331.171 285.061 331.171L283.789 335.973L282.854 339.501L281.953 347.139L285.529 339.622L284.427 346.63L286.329 342.142L284.568 351.44L288.252 345.137L285.723 355.511L287.028 353.682L289.561 350.131L287.537 357.293L291.008 354.248L290.457 357.752L291.992 355.6L291.257 360.272L294.098 357.427L296.375 361.974L296.171 355.658L298.553 355.733L295.646 351.386L294.107 347.853L296.551 349.434L293.552 345.671L296.226 345.792L294.716 340.169L296.622 341.366L291.225 335.73L297.574 339.122L294.959 334.821L296.849 334.22L291.698 328.922L298.785 333.328L295.799 325.677L297.797 326.29L296.51 323.658L296.212 323.049L294.548 316.504L296.838 317.163L293.501 313.646L292.884 309.958L290.807 306.041L295.988 309.249L290.253 303.859L295.818 306.529L300.068 319.465L299.196 325.013L303.635 321.522L302.241 328.484L306.096 324.901L304.256 330.895L306.759 328.296L304.781 335.166L308.619 329.785L307.763 337.131L310.296 332.443L309.194 339.451L312.602 334.9L311.546 341.616L314.37 336.973L313.068 343.351L316.906 337.97L315.896 344.394C315.896 344.394 319.826 338.429 319.934 339.643C320.042 340.857 318.986 347.573 318.986 347.573L320.859 345.175L320.646 348.433C320.646 348.433 321.939 351.628 322.385 352.596C322.831 353.564 326.139 359.171 326.139 359.171C326.139 359.171 325.748 348.338 325.393 346.786C325.039 345.234 321.406 335.986 321.406 335.986L319.329 332.069L323.296 335.386L319.788 329.149L323.354 331.206L318.048 324.986L320.338 325.645L315.341 321.269L320.075 323.509L313.972 320.455L317.705 319.546L313.692 316.521C313.692 316.521 317.042 316.15 315.674 315.337C314.306 314.523 313.23 313.756 313.23 313.756L317.948 314.199L313.489 310.207L316.701 310.712L309.03 306.215C309.03 306.215 307.508 304.48 305.939 303.036C304.371 301.593 301.234 298.706 299.374 297.216C297.514 295.727 294.131 292.502 294.131 292.502L298.281 294.651L304.446 299.211L303.891 297.029L303.474 293.971L305.488 296.382L305.964 295.26L308.471 298.347L309.222 295.473L310.206 296.825C310.206 296.825 310.127 293.521 310.957 293.951C311.787 294.381 312.342 296.562 312.342 296.562L314.291 291.782L316.014 294.147L317.211 292.241L318.533 293.347L320.785 305.67L321.795 299.246L322.875 305.699L324.945 298.245L327.009 306.05L328.39 302.976L329.525 299.564L329.229 293.832L330.165 297.08C329.891 295.919 329.725 294.509 330.597 294.646C332.057 294.876 333.166 299.239 333.166 299.239L332.979 294.721L335.886 299.068L335.895 296.236L335.899 295.18L341.247 295.422L329.626 289.406L333.292 289.982L337.28 292.105L338.707 288.739L331.328 284.288L334.002 284.409L326.302 282.001L318.894 279.639L318.135 271.142L322.949 276.686L322.299 269.403L326.929 276.115L327.276 266.295L330.308 273.654L331.026 267.184L334.409 270.409L335.452 267.581L339.311 269.684L338.172 267.411L343.182 267.9L338.231 263.232L341.351 264.321L343.779 264.104C343.779 264.104 340.304 261.463 339.136 261.28C337.968 261.096 320.314 264.904 320.314 264.904L316.443 266.689L308.067 264.774L312.489 259.485L308.017 259.38L310.674 257.703L317.219 256.039L314.007 255.534L318.17 253.795L315.88 253.136L322.934 253.946L326.513 252.115C326.513 252.115 322.563 250.596 317.661 251.322C312.76 252.047 306.139 256.093 305.171 256.54C304.203 256.986 306.03 254.88 306.03 254.88L302.864 254.083L307.949 252.19L305.613 251.823L313.08 250.005L306.364 248.949L313.647 248.299L308.375 245.675L315.491 247.991L307.528 243.448L315.95 245.071L308.679 241.833L317.639 243.84L314.21 240.907L318.636 241.304L316.238 239.431L318.912 239.552L323.338 239.949L319.525 237.554L322.291 237.091L321.015 235.694L324.519 236.245L318.954 233.575L320.289 230.793L316.893 231.456L317.168 229.704L314.694 230.213L314.385 228.369L311.682 230.338L310.543 228.064L308.887 232.89L307.014 235.288L306.017 237.824L305.951 230.632L303.606 239.838L303.048 231.971L300.916 237.919L299.79 231.758L299.01 236.722L295.227 232.238L301.785 226.686L295.686 229.318L296.896 223.524L294.318 228.505L291.831 232.901L292.795 226.769L290.801 231.841L288.019 230.506L287.301 236.976L283.81 232.537L284.014 238.853L281.491 233.968L281.449 239.946L279.835 238.795L281.299 244.71L278.809 243.421L280.302 247.246L278.796 247.309C278.796 247.309 278.585 248.653 278.435 250.002C278.054 248.322 277.428 246.495 277.428 246.495L276.523 248.447L274.925 249.093L272.431 242.118L275.918 240.871L272.936 238.906L275.209 237.767L272.765 236.186L274.592 234.08L272.732 232.591L272.423 230.747L271.009 230.226L273.374 228.503L274.939 224.261L272.065 223.51L271.802 221.374L269.958 221.683L268.573 219.072L267.376 220.978L261.565 217.97L266.716 223.268L262.027 220.736L265.318 224.545L262.106 224.04L267.671 226.71L266.227 228.278L262.093 227.927L263.616 229.662L260.312 229.741L263.357 233.212L257.701 231.126L265.051 237.667L256.366 233.908L262.101 239.298L257.675 238.901L259.982 241.358C259.982 241.358 257.74 241.119 256.24 240.9C258.365 241.72 262.289 243.815 262.289 243.815L258.201 243.172L261.584 246.397L258.143 247.352L264.616 253.756L258.93 253.76L261.712 255.095L258.087 257.218L265.987 260.255L260.026 262.011L264.99 262.791L261.903 265.298L264.71 265.099L265.837 265.019L267.651 266.8L265.824 268.906L269.328 269.457L267.592 270.979C267.592 270.979 259.537 267.02 257.247 266.36C254.957 265.701 250.961 264.474 248.533 264.691C246.105 264.908 243.047 265.325 242.126 265.479C241.204 265.633 237.746 264.79 235.364 264.715C232.982 264.64 227.096 264.013 226.22 263.876C225.344 263.738 220.088 262.912 219.212 262.774C218.339 262.63 225.134 266.99 225.134 266.99ZM274.635 367.57L275.495 342.53L276.376 342.669C275.785 351.129 275.176 359.84 274.635 367.57ZM276.478 341.21L274.786 339.427L276.583 339.709C276.548 340.208 276.513 340.708 276.478 341.21ZM276.652 338.715L275.583 336.26L276.81 336.453C276.757 337.203 276.705 337.957 276.652 338.715ZM277.032 333.279L276.226 332.172C276.226 332.172 276.65 332.39 277.087 332.494C277.068 332.755 277.05 333.017 277.032 333.279ZM277.328 329.027C277.104 328.326 276.914 327.792 276.914 327.792L277.399 328.017C277.375 328.353 277.352 328.687 277.328 329.027ZM277.445 327.352L274.699 324.751L277.542 325.956C277.51 326.418 277.478 326.882 277.445 327.352ZM277.653 324.374L276.034 321.969L277.772 322.669C277.733 323.229 277.693 323.798 277.653 324.374ZM276.712 300.532C276.942 299.072 277.492 295.568 277.492 295.568L279.015 304.845C278.832 307.47 278.455 312.887 277.972 319.81L276.713 317.152L276.323 316.329L274.83 312.504L277.704 313.255L276.949 310.443L276.916 306.847C276.916 306.847 275.518 308.123 275.748 306.663C275.977 305.204 276.482 301.992 276.712 300.532Z" fill="black"/>
<path d="M255.022 240.57C254.669 240.629 255.315 240.757 256.244 240.893C255.669 240.671 255.218 240.537 255.022 240.57Z" fill="black"/>
</g>
<path d="M399.974 413.159C393.087 413.159 387.193 408.216 385.994 401.434L358.309 244.894H441.64L413.955 401.434C412.755 408.216 406.862 413.159 399.974 413.159Z" fill="#92E3A9"/>
<path opacity="0.5" d="M416.558 386.707L413.989 383.586L417.641 380.58L418.219 377.312L412.619 381.921L401.735 368.698L416.159 356.825L420.837 362.508L421.331 359.716L417.824 355.455L422.81 351.351L423.388 348.083L416.453 353.791L405.569 340.567L419.993 328.695L425.609 335.519L426.103 332.727L421.657 327.326L427.978 322.123L428.556 318.855L420.287 325.661L409.403 312.437L423.828 300.564L430.383 308.528L430.877 305.735L425.493 299.194L433.148 292.893L433.726 289.626L424.123 297.53L413.239 284.307L427.662 272.436L435.156 281.541L435.65 278.747L429.327 271.065L438.317 263.665L438.895 260.398L427.957 269.401L417.073 256.177L430.778 244.897H427.384L415.702 254.512L407.788 244.897H404.993L414.035 255.883L399.612 267.754L381.113 245.279C380.931 245.056 380.677 244.93 380.413 244.897H380.297C380.05 244.893 379.8 244.96 379.594 245.132C379.135 245.509 379.068 246.19 379.446 246.649L397.946 269.125L383.522 280.997L365.918 259.608C365.538 259.149 364.861 259.077 364.399 259.461C363.94 259.838 363.873 260.519 364.252 260.978L381.858 282.368L367.434 294.24L366.921 293.616L367.685 297.939L378.024 310.5L370.938 316.332L371.369 318.77L379.394 312.165L390.278 325.388L375.854 337.26L374.308 335.381L375.226 340.57L375.56 340.295L386.444 353.518L378.65 359.933L379.081 362.371L387.814 355.183L398.698 368.407L384.274 380.279L381.694 377.144L382.458 381.465L382.609 381.649L382.505 381.734L382.936 384.172L383.979 383.314L394.862 396.537L386.521 403.403C386.759 404.124 387.058 404.81 387.4 405.472L396.232 398.202L407.003 411.288C407.632 410.929 408.219 410.509 408.784 410.06L397.897 396.833L412.321 384.96L416.06 389.503L416.558 386.707ZM418.625 327.031L404.2 338.903L393.316 325.679L407.74 313.807L418.625 327.031ZM422.46 298.899L408.035 310.772L397.151 297.549L411.575 285.676L422.46 298.899ZM415.409 257.546L426.293 270.77L411.87 282.641L400.986 269.417L415.409 257.546ZM399.322 270.788L410.206 284.012L395.781 295.884L384.897 282.66L399.322 270.788ZM368.808 295.902L383.232 284.03L394.116 297.254L379.692 309.126L368.808 295.902ZM381.063 310.791L395.487 298.919L406.371 312.142L391.947 324.014L381.063 310.791ZM377.227 338.922L391.651 327.05L402.535 340.274L388.111 352.146L377.227 338.922ZM389.481 353.81L403.905 341.938L414.789 355.162L400.365 367.034L389.481 353.81ZM396.53 395.164L385.647 381.941L400.071 370.069L410.955 383.292L396.53 395.164Z" fill="white"/>
<path d="M399.974 413.159C393.087 413.159 387.193 408.216 385.994 401.434L358.309 244.894H441.64L413.955 401.434C412.755 408.216 406.862 413.159 399.974 413.159Z" stroke="#263238" stroke-miterlimit="10"/>
<path d="M410.005 209.203C430.628 209.203 447.346 192.485 447.346 171.862C447.346 151.239 430.628 134.521 410.005 134.521C389.382 134.521 372.664 151.239 372.664 171.862C372.664 192.485 389.382 209.203 410.005 209.203Z" fill="white" stroke="#263238" stroke-miterlimit="10" stroke-linecap="round" stroke-linejoin="round"/>
<path d="M387.149 146.494C381.533 151.557 377.607 158.459 376.318 166.251L387.149 146.494Z" fill="white"/>
<path d="M387.149 146.494C381.533 151.557 377.607 158.459 376.318 166.251" stroke="#263238" stroke-miterlimit="10" stroke-linecap="round" stroke-linejoin="round"/>
<path d="M397.84 139.949C395.232 140.944 392.777 142.249 390.521 143.819L397.84 139.949Z" fill="white"/>
<path d="M397.84 139.949C395.232 140.944 392.777 142.249 390.521 143.819" stroke="#263238" stroke-miterlimit="10" stroke-linecap="round" stroke-linejoin="round"/>
<path d="M388.265 257.535C413.074 251.798 428.535 227.036 422.798 202.227C417.061 177.419 392.299 161.958 367.49 167.695C342.682 173.432 327.221 198.194 332.958 223.002C338.695 247.811 363.457 263.272 388.265 257.535Z" fill="#A6A6A6" stroke="#263238" stroke-miterlimit="10" stroke-linecap="round" stroke-linejoin="round"/>
<path d="M340.14 196.145C338.123 200.913 337.008 206.156 337.008 211.659C337.008 225.076 343.638 236.945 353.801 244.168" stroke="#263238" stroke-miterlimit="10" stroke-linecap="round" stroke-linejoin="round"/>
<path d="M354.354 178.763C351.264 180.881 348.488 183.424 346.109 186.307" stroke="#263238" stroke-miterlimit="10" stroke-linecap="round" stroke-linejoin="round"/>
<path d="M436.081 260.024C456.704 260.024 473.422 243.306 473.422 222.683C473.422 202.06 456.704 185.342 436.081 185.342C415.458 185.342 398.74 202.06 398.74 222.683C398.74 243.306 415.458 260.024 436.081 260.024Z" fill="#E8E8E8" stroke="#263238" stroke-miterlimit="10" stroke-linecap="round" stroke-linejoin="round"/>
<path d="M410.006 209.202C408.294 213.249 407.348 217.698 407.348 222.369C407.348 233.757 412.975 243.831 421.601 249.961" stroke="#263238" stroke-miterlimit="10" stroke-linecap="round" stroke-linejoin="round"/>
<path d="M422.07 194.45C419.447 196.248 417.091 198.406 415.072 200.852" stroke="#263238" stroke-miterlimit="10" stroke-linecap="round" stroke-linejoin="round"/>
<path d="M349.363 247.892C349.363 247.892 356.567 256.406 357.877 262.956C359.187 269.505 367.701 304.872 366.391 309.456C365.081 314.041 366.656 322.59 372.273 323.581C377.89 324.572 379.817 317.24 378.028 310.498C376.239 303.755 375.578 293.842 374.917 282.608C374.256 271.373 371.282 265.425 375.247 264.104C379.212 262.782 379.543 262.452 380.204 270.713C380.865 278.974 388.134 343.078 388.465 345.391C388.795 347.704 392.1 350.017 393.752 345.061C395.404 340.104 392.761 262.783 392.761 262.783C392.761 262.783 392.431 251.879 395.404 243.287" fill="#A6A6A6"/>
<path d="M349.363 247.892C349.363 247.892 356.567 256.406 357.877 262.956C359.187 269.505 367.701 304.872 366.391 309.456C365.081 314.041 366.656 322.59 372.273 323.581C377.89 324.572 379.817 317.24 378.028 310.498C376.239 303.755 375.578 293.842 374.917 282.608C374.256 271.373 371.282 265.425 375.247 264.104C379.212 262.782 379.543 262.452 380.204 270.713C380.865 278.974 388.134 343.078 388.465 345.391C388.795 347.704 392.1 350.017 393.752 345.061C395.404 340.104 392.761 262.783 392.761 262.783C392.761 262.783 392.431 251.879 395.404 243.287" stroke="#263238" stroke-miterlimit="10" stroke-linecap="round" stroke-linejoin="round"/>
<path d="M376.798 314.137C376.798 316.176 375.889 317.83 374.767 317.83C373.645 317.83 372.736 316.177 372.736 314.137C372.736 312.097 373.645 310.444 374.767 310.444C375.889 310.444 376.798 312.097 376.798 314.137Z" fill="white"/>
<path d="M421.178 255.511L421.497 307.46C421.504 308.576 422.286 309.538 423.378 309.772C424.817 310.08 426.188 309.031 426.253 307.56C426.632 299.007 427.102 290.45 427.851 281.921C428.207 277.866 428.506 273.729 429.31 269.73C430.101 265.798 430.406 266.544 433.538 266.014C440.135 264.897 438.797 259.835 443.539 256.683C447.721 253.904 453.085 257.952 454.717 251.156C455.384 248.379 456.031 244.828 458.655 242.991C461.715 240.849 464.769 242.576 465.456 237.996C466.447 231.387 466.117 229.735 466.117 229.735" fill="#E8E8E8"/>
<path d="M421.178 255.511L421.497 307.46C421.504 308.576 422.286 309.538 423.378 309.772C424.817 310.08 426.188 309.031 426.253 307.56C426.632 299.007 427.102 290.45 427.851 281.921C428.207 277.866 428.506 273.729 429.31 269.73C430.101 265.798 430.406 266.544 433.538 266.014C440.135 264.897 438.797 259.835 443.539 256.683C447.721 253.904 453.085 257.952 454.717 251.156C455.384 248.379 456.031 244.828 458.655 242.991C461.715 240.849 464.769 242.576 465.456 237.996C466.447 231.387 466.117 229.735 466.117 229.735" stroke="#263238" stroke-miterlimit="10" stroke-linecap="round" stroke-linejoin="round"/>
<path d="M439.031 195.327C437.905 197.436 439.386 200.424 442.34 202.001C445.293 203.577 448.6 203.145 449.726 201.036C450.852 198.927 449.371 195.939 446.417 194.362C443.464 192.786 440.157 193.218 439.031 195.327Z" fill="white"/>
<path d="M385.226 177.043C384.317 179.255 386.09 182.079 389.186 183.352C392.282 184.625 395.529 183.864 396.438 181.652C397.347 179.44 395.574 176.616 392.478 175.343C389.382 174.071 386.135 174.832 385.226 177.043Z" fill="white"/>
<path d="M178.732 81.6081C165.249 85.9561 152.693 92.7491 142.282 102.619C135.52 109.03 129.768 116.467 125.112 124.533C104.236 160.702 112.489 187.404 134.336 206.338C156.183 225.272 192.352 235.224 233.618 227.214C274.885 219.204 304.014 201.24 301.829 146.866C299.644 92.4911 258.378 76.9561 230.705 75.4991C213.498 74.5931 195.406 76.2311 178.732 81.6081Z" fill="#92E3A9" stroke="#263238" stroke-miterlimit="10" stroke-linecap="round" stroke-linejoin="round"/>
<path d="M184.003 133.112C184.003 133.112 166.79 173.389 168.856 199.552C170.921 225.715 211.338 236.286 236.743 227.214C262.147 218.142 253.541 161.685 247 145.849C240.459 130.014 214.985 91.8021 184.003 133.112Z" fill="#263238" stroke="#263238" stroke-miterlimit="10" stroke-linecap="round" stroke-linejoin="round"/>
<path d="M188.194 202.939C188.194 202.939 189.65 219.446 185.767 226.971C181.883 234.496 170.231 237.409 164.891 238.623C159.551 239.837 132.849 242.507 123.139 261.198C113.429 279.889 110.759 318.243 110.031 319.942C109.303 321.641 101.535 358.538 103.234 371.889C104.933 385.24 127.266 387.91 136.004 378.686C144.743 369.462 146.442 364.121 146.442 364.121C146.442 364.121 139.16 385.24 132.363 408.786C125.566 432.332 120.226 441.071 119.012 459.277H286.991H305.682C305.682 459.277 305.439 431.604 300.342 407.33C295.244 383.056 291.118 368.248 291.36 359.752C291.603 351.256 297.671 318.728 290.389 284.501C283.107 250.274 270.727 246.39 256.89 242.264C243.054 238.137 231.887 237.166 228.004 230.612C224.12 224.058 225.334 204.881 225.334 204.881L188.194 202.939Z" fill="white"/>
<path d="M218.882 439.536C241.51 421.498 226.887 406.875 208.849 429.503C190.811 406.875 176.188 421.498 198.816 439.536C188.091 448.085 185.738 455.864 188.147 459.277H198.122C201.326 457.51 205.009 454.386 208.849 449.569C212.689 454.386 216.372 457.509 219.576 459.277H229.551C231.96 455.864 229.607 448.085 218.882 439.536Z" fill="#92E3A9"/>
<path d="M151.113 277.862C169.151 300.49 183.774 285.867 161.146 267.829C183.774 249.791 169.151 235.168 151.113 257.796C146.192 251.623 141.528 248.228 137.802 246.912C134.931 248.497 132.171 250.403 129.7 252.693C130.429 256.655 133.851 262.066 141.08 267.829C118.452 285.867 133.075 300.49 151.113 277.862Z" fill="#92E3A9"/>
<path d="M284.463 265.037C282.462 260.461 280.273 256.911 277.929 254.114C274.324 255.59 269.928 258.937 265.306 264.736C247.268 242.108 232.645 256.731 255.273 274.769C232.645 292.807 247.268 307.43 265.306 284.802C283.344 307.43 297.967 292.807 275.339 274.769C279.663 271.32 282.623 267.999 284.463 265.037Z" fill="#92E3A9"/>
<path d="M208.849 321.191C190.811 298.563 176.188 313.186 198.816 331.224C176.188 349.262 190.811 363.885 208.849 341.257C226.887 363.885 241.51 349.262 218.882 331.224C241.51 313.186 226.887 298.563 208.849 321.191Z" fill="#92E3A9"/>
<path d="M262.478 383.499C244.44 360.871 229.817 375.494 252.445 393.532C229.817 411.57 244.44 426.193 262.478 403.565C280.516 426.193 295.139 411.57 272.511 393.532C295.138 375.494 280.515 360.871 262.478 383.499Z" fill="#92E3A9"/>
<path d="M152.098 403.565C170.136 426.193 184.759 411.57 162.131 393.532C184.759 375.494 170.136 360.871 152.098 383.499C148.855 379.431 145.725 376.573 142.9 374.716C141.523 378.916 139.839 384.139 138.022 389.971C139.212 391.136 140.553 392.326 142.066 393.532C138.941 396.023 136.53 398.448 134.737 400.719C133.947 403.357 133.152 406.054 132.364 408.786C131.954 410.205 131.551 411.567 131.152 412.883C133.509 417.154 142.298 415.858 152.098 403.565Z" fill="#92E3A9"/>
<path d="M140.624 373.398C132.783 369.498 128.132 373.999 131.818 381.758C133.402 380.945 134.829 379.926 136.005 378.686C137.846 376.743 139.358 374.983 140.624 373.398Z" fill="#92E3A9"/>
<g opacity="0.7">
<path d="M218.882 439.536C241.51 421.498 226.887 406.875 208.849 429.503C190.811 406.875 176.188 421.498 198.816 439.536C188.091 448.085 185.738 455.864 188.147 459.277H198.122C201.326 457.51 205.009 454.386 208.849 449.569C212.689 454.386 216.372 457.509 219.576 459.277H229.551C231.96 455.864 229.607 448.085 218.882 439.536Z" fill="white"/>
<path d="M151.113 277.862C169.151 300.49 183.774 285.867 161.146 267.829C183.774 249.791 169.151 235.168 151.113 257.796C146.192 251.623 141.528 248.228 137.802 246.912C134.931 248.497 132.171 250.403 129.7 252.693C130.429 256.655 133.851 262.066 141.08 267.829C118.452 285.867 133.075 300.49 151.113 277.862Z" fill="white"/>
<path d="M284.463 265.037C282.462 260.461 280.273 256.911 277.929 254.114C274.324 255.59 269.928 258.937 265.306 264.736C247.268 242.108 232.645 256.731 255.273 274.769C232.645 292.807 247.268 307.43 265.306 284.802C283.344 307.43 297.967 292.807 275.339 274.769C279.663 271.32 282.623 267.999 284.463 265.037Z" fill="white"/>
<path d="M208.849 321.191C190.811 298.563 176.188 313.186 198.816 331.224C176.188 349.262 190.811 363.885 208.849 341.257C226.887 363.885 241.51 349.262 218.882 331.224C241.51 313.186 226.887 298.563 208.849 321.191Z" fill="white"/>
<path d="M262.478 383.499C244.44 360.871 229.817 375.494 252.445 393.532C229.817 411.57 244.44 426.193 262.478 403.565C280.516 426.193 295.139 411.57 272.511 393.532C295.138 375.494 280.515 360.871 262.478 383.499Z" fill="white"/>
<path d="M152.098 403.565C170.136 426.193 184.759 411.57 162.131 393.532C184.759 375.494 170.136 360.871 152.098 383.499C148.855 379.431 145.725 376.573 142.9 374.716C141.523 378.916 139.839 384.139 138.022 389.971C139.212 391.136 140.553 392.326 142.066 393.532C138.941 396.023 136.53 398.448 134.737 400.719C133.947 403.357 133.152 406.054 132.364 408.786C131.954 410.205 131.551 411.567 131.152 412.883C133.509 417.154 142.298 415.858 152.098 403.565Z" fill="white"/>
<path d="M140.624 373.398C132.783 369.498 128.132 373.999 131.818 381.758C133.402 380.945 134.829 379.926 136.005 378.686C137.846 376.743 139.358 374.983 140.624 373.398Z" fill="white"/>
</g>
<path d="M188.194 202.939C188.194 202.939 189.65 219.446 185.767 226.971C181.883 234.496 170.231 237.409 164.891 238.623C159.551 239.837 132.849 242.507 123.139 261.198C113.429 279.889 110.759 318.243 110.031 319.942C109.303 321.641 101.535 358.538 103.234 371.889C104.933 385.24 127.266 387.91 136.004 378.686C144.743 369.462 146.442 364.121 146.442 364.121C146.442 364.121 139.16 385.24 132.363 408.786C125.566 432.332 120.226 441.071 119.012 459.277H286.991H305.682C305.682 459.277 305.439 431.604 300.342 407.33C295.244 383.056 291.118 368.248 291.36 359.752C291.603 351.256 297.671 318.728 290.389 284.501C283.107 250.274 270.727 246.39 256.89 242.264C243.054 238.137 231.887 237.166 228.004 230.612C224.12 224.058 225.334 204.881 225.334 204.881L188.194 202.939Z" stroke="#263238" stroke-miterlimit="10" stroke-linecap="round" stroke-linejoin="round"/>
<path d="M209.594 261.228C227.63 260.514 240.119 249.604 247.77 239.798C238.28 237.39 230.988 235.648 228.004 230.612C224.12 224.058 225.334 204.881 225.334 204.881L188.194 202.939C188.194 202.939 189.65 219.446 185.767 226.971C181.883 234.496 170.231 237.409 164.891 238.623C164.029 238.819 162.603 239.054 160.789 239.388C167.347 246.744 184.243 262.232 209.594 261.228Z" fill="white" stroke="#263238" stroke-miterlimit="10" stroke-linecap="round" stroke-linejoin="round"/>
<path d="M145.987 365.455C145.112 368.028 143.047 374.167 140.451 382.28C143.352 375.932 145.859 370.364 145.859 370.085C145.859 369.85 145.915 367.886 145.987 365.455Z" fill="white" stroke="#263238" stroke-miterlimit="10" stroke-linecap="round" stroke-linejoin="round"/>
<path d="M136.004 378.686C142.462 371.87 145.07 367.182 145.994 365.196C146.124 360.811 146.3 355.078 146.3 355.078C141.224 341.394 142.107 313.364 142.107 313.364C133.211 311.445 118.532 303.189 112.765 299.81C111.112 310.622 110.365 319.162 110.03 319.943C109.302 321.642 101.534 358.539 103.233 371.89C104.933 385.24 127.265 387.91 136.004 378.686Z" fill="white" stroke="#263238" stroke-miterlimit="10" stroke-linecap="round" stroke-linejoin="round"/>
<path d="M300.341 407.33C295.243 383.056 291.117 368.248 291.36 359.752C291.555 352.932 295.498 330.623 293.281 304.384C288.453 307.569 278.338 313.392 269.611 312.846C269.611 312.846 265.128 353.565 264.007 362.905C262.886 372.245 277.829 411.469 282.312 428.654C286.795 445.838 286.99 459.277 286.99 459.277H305.681C305.681 459.277 305.439 431.604 300.341 407.33Z" fill="white" stroke="#263238" stroke-miterlimit="10" stroke-linecap="round" stroke-linejoin="round"/>
<path d="M269.612 312.846C269.612 312.846 268.233 296.479 266.467 286.105L269.612 312.846Z" fill="white"/>
<path d="M269.612 312.846C269.612 312.846 268.233 296.479 266.467 286.105" stroke="#263238" stroke-miterlimit="10" stroke-linecap="round" stroke-linejoin="round"/>
<path d="M279.216 418.126C262.921 427.072 244.131 438.913 213.69 440.928C181.183 443.079 140.515 432.626 127.127 425.401C122.935 437.872 119.891 446.094 119.012 459.277H286.991C286.991 459.277 286.796 445.838 282.313 428.654C281.546 425.708 280.466 422.105 279.216 418.126Z" fill="#263238" stroke="#263238" stroke-miterlimit="10" stroke-linecap="round" stroke-linejoin="round"/>
<path d="M142.107 313.363C142.107 313.363 141.627 295.048 146.881 287.167L142.107 313.363Z" fill="white"/>
<path d="M142.107 313.363C142.107 313.363 141.627 295.048 146.881 287.167" stroke="#263238" stroke-miterlimit="10" stroke-linecap="round" stroke-linejoin="round"/>
<path d="M201.508 324.789C201.508 324.789 209.777 319.576 212.654 315.621C215.53 311.666 221.103 305.015 221.103 313.643C221.103 322.271 216.249 325.508 213.013 327.845C209.777 330.182 205.463 333.238 201.867 337.732C198.271 342.226 188.384 346.72 190.721 339.53C193.058 332.339 201.508 324.789 201.508 324.789Z" fill="white" stroke="#263238" stroke-miterlimit="10" stroke-linecap="round" stroke-linejoin="round"/>
<path d="M206.38 338.973C203.421 338.973 200.889 336.849 200.374 333.936L188.479 266.681H224.281L212.386 333.936C211.871 336.849 209.339 338.973 206.38 338.973Z" fill="#263238" stroke="#263238" stroke-miterlimit="10" stroke-linecap="round" stroke-linejoin="round"/>
<path opacity="0.5" d="M213.505 327.608L212.401 326.267L213.97 324.976L214.218 323.572L211.812 325.552L207.136 319.871L213.333 314.77L215.343 317.212L215.555 316.012L214.048 314.181L216.19 312.418L216.438 311.014L213.459 313.466L208.783 307.785L214.98 302.684L217.393 305.616L217.605 304.416L215.695 302.095L218.411 299.86L218.659 298.456L215.106 301.38L210.43 295.698L216.627 290.597L219.443 294.019L219.655 292.819L217.342 290.008L220.631 287.301L220.879 285.897L216.753 289.293L212.077 283.612L218.274 278.512L221.494 282.424L221.706 281.223L218.989 277.922L222.852 274.743L223.1 273.339L218.401 277.207L213.725 271.525L219.613 266.679H218.155L213.136 270.81L209.736 266.679H208.535L212.42 271.399L206.223 276.499L198.275 266.843C198.197 266.747 198.088 266.693 197.974 266.679H197.924C197.818 266.677 197.711 266.706 197.622 266.78C197.425 266.942 197.396 267.234 197.559 267.432L205.507 277.088L199.31 282.189L191.746 272.999C191.583 272.802 191.292 272.771 191.093 272.936C190.896 273.098 190.867 273.39 191.03 273.588L198.594 282.778L192.397 287.879L192.176 287.611L192.505 289.468L196.947 294.865L193.903 297.371L194.088 298.418L197.536 295.58L202.212 301.261L196.015 306.362L195.351 305.555L195.745 307.784L195.889 307.666L200.565 313.347L197.217 316.103L197.402 317.151L201.154 314.063L205.83 319.744L199.633 324.845L198.524 323.498L198.852 325.354L198.917 325.433L198.872 325.47L199.057 326.517L199.505 326.148L204.181 331.829L200.597 334.779C200.699 335.089 200.827 335.383 200.975 335.668L204.77 332.544L209.397 338.166C209.667 338.012 209.919 337.831 210.162 337.638L205.484 331.955L211.681 326.854L213.287 328.806L213.505 327.608ZM214.393 301.969L208.196 307.07L203.52 301.389L209.717 296.288L214.393 301.969ZM216.041 289.883L209.844 294.984L205.168 289.303L211.365 284.202L216.041 289.883ZM213.012 272.116L217.688 277.797L211.491 282.897L206.815 277.216L213.012 272.116ZM206.1 277.805L210.776 283.486L204.579 288.587L199.903 282.906L206.1 277.805ZM192.99 288.595L199.187 283.494L203.863 289.175L197.666 294.276L192.99 288.595ZM198.255 294.992L204.452 289.891L209.128 295.572L202.931 300.673L198.255 294.992ZM196.607 307.078L202.804 301.977L207.48 307.658L201.283 312.759L196.607 307.078ZM201.872 313.474L208.069 308.373L212.745 314.054L206.548 319.155L201.872 313.474ZM204.901 331.242L200.225 325.561L206.422 320.46L211.098 326.141L204.901 331.242Z" fill="white"/>
<path d="M110.589 366.288C123.499 348.258 142.42 353.6 153.995 352.932C165.57 352.264 179.671 349.449 179.671 349.449C183.11 340.45 182.439 343.386 183.286 332.647C183.506 329.866 183.954 317.814 184.699 315.125C185.481 312.305 186.703 309.876 189.237 308.412C196.732 304.08 205.818 302.578 214.308 304.269C215.002 304.407 215.738 304.591 216.218 305.112C217.167 306.142 216.529 307.932 215.358 308.7C214.187 309.467 212.712 309.536 211.322 309.706C203.642 310.649 196.591 315.701 193.228 322.67C198.409 317.567 205.403 314.343 212.648 313.718C214.482 313.56 216.458 313.598 217.986 314.625C219.514 315.652 220.272 317.988 219.081 319.392C218.43 320.16 217.4 320.465 216.44 320.768C207.592 323.561 199.737 329.403 194.516 337.073C198.77 334.375 203.319 332.143 208.056 330.43C210.543 329.531 213.617 328.876 215.591 330.636C216.789 331.704 217.219 333.463 216.939 335.043C216.659 336.623 215.754 338.035 214.651 339.201C216.896 339.036 218.421 341.89 217.708 344.025C216.995 346.16 214.878 347.502 212.77 348.292C210.663 349.082 208.395 349.512 206.47 350.679C203.075 352.738 202.478 356.848 200.814 360.125C197.215 367.212 189.119 368.76 182.265 371.185C182.265 371.185 166.649 380.71 142.866 391.219C119.086 401.726 111.771 393.95 108.136 390.268C101.39 383.434 103.039 364.743 103.039 361.404" fill="white"/>
<path d="M110.589 366.288C123.499 348.258 142.42 353.6 153.995 352.932C165.57 352.264 179.671 349.449 179.671 349.449C183.11 340.45 182.439 343.386 183.286 332.647C183.506 329.866 183.954 317.814 184.699 315.125C185.481 312.305 186.703 309.876 189.237 308.412C196.732 304.08 205.818 302.578 214.308 304.269C215.002 304.407 215.738 304.591 216.218 305.112C217.167 306.142 216.529 307.932 215.358 308.7C214.187 309.467 212.712 309.536 211.322 309.706C203.642 310.649 196.591 315.701 193.228 322.67C198.409 317.567 205.403 314.343 212.648 313.718C214.482 313.56 216.458 313.598 217.986 314.625C219.514 315.652 220.272 317.988 219.081 319.392C218.43 320.16 217.4 320.465 216.44 320.768C207.592 323.561 199.737 329.403 194.516 337.073C198.77 334.375 203.319 332.143 208.056 330.43C210.543 329.531 213.617 328.876 215.591 330.636C216.789 331.704 217.219 333.463 216.939 335.043C216.659 336.623 215.754 338.035 214.651 339.201C216.896 339.036 218.421 341.89 217.708 344.025C216.995 346.16 214.878 347.502 212.77 348.292C210.663 349.082 208.395 349.512 206.47 350.679C203.075 352.738 202.478 356.848 200.814 360.125C197.215 367.212 189.119 368.76 182.265 371.185C182.265 371.185 166.649 380.71 142.866 391.219C119.086 401.726 111.771 393.95 108.136 390.268C101.39 383.434 103.039 364.743 103.039 361.404" stroke="#263238" stroke-miterlimit="10" stroke-linecap="round" stroke-linejoin="round"/>
<path d="M214.65 339.2C205.411 339.016 203.974 339.817 196.99 347.211L214.65 339.2Z" fill="white"/>
<path d="M214.65 339.2C205.411 339.016 203.974 339.817 196.99 347.211" stroke="#263238" stroke-miterlimit="10" stroke-linecap="round" stroke-linejoin="round"/>
<path d="M191.744 235.808C194.724 231.118 201.504 228.921 206.248 231.814C207.406 232.52 208.409 233.477 209.63 234.067C210.851 234.657 212.441 234.8 213.467 233.914C214.737 232.818 214.524 230.779 213.875 229.232C213.226 227.685 212.236 226.185 212.282 224.508C212.328 222.831 214.183 221.13 215.602 222.024C214.082 224.16 215.174 227.239 216.982 229.137C218.789 231.035 221.202 232.281 222.973 234.214C225.598 237.081 226.513 241.406 225.274 245.09C224.537 247.283 223.089 249.328 223.148 251.641C223.23 254.883 226.153 257.218 227.795 260.014C229.681 263.226 229.84 267.387 228.203 270.733C226.566 274.079 223.184 276.508 219.491 276.991C219.63 280.8 219.768 284.608 219.907 288.417C219.968 290.104 219.588 292.346 217.911 292.541C216.904 292.658 215.981 291.829 215.64 290.874C215.299 289.919 215.402 288.87 215.508 287.861C215.957 283.615 216.405 279.37 216.854 275.125C210.691 275.527 204.402 273.402 199.745 269.345C194.964 265.18 192.589 259.502 191.463 253.385C190.381 247.5 188.238 241.325 191.744 235.808Z" fill="#92E3A9" stroke="#263238" stroke-miterlimit="10" stroke-linecap="round" stroke-linejoin="round"/>
<path d="M195.554 239.671C196.412 240.772 198.356 240.691 199.898 239.49C201.44 238.289 201.993 236.423 201.136 235.323C200.278 234.222 198.334 234.303 196.792 235.504C195.25 236.705 194.697 238.57 195.554 239.671Z" fill="white"/>
<path d="M225.32 263.62C225.716 264.754 225.805 265.967 225.33 267.236" stroke="#263238" stroke-miterlimit="10" stroke-linecap="round" stroke-linejoin="round"/>
<path d="M223.49 239.943C223.49 239.943 225.33 242.09 222.263 246.69C219.196 251.29 219.656 256.043 221.496 258.19C222.099 258.893 222.866 259.712 223.577 260.624" stroke="#263238" stroke-miterlimit="10" stroke-linecap="round" stroke-linejoin="round"/>
<path d="M177.525 265.72C178.501 276.071 189.534 282.879 191.923 292.998C192.848 296.916 192.355 301.154 190.554 304.755C189.631 306.601 188.362 308.327 187.968 310.353C187.448 313.025 188.533 315.719 189.596 318.225C189.853 318.831 190.17 319.497 190.785 319.731C191.648 320.059 192.603 319.289 192.855 318.401C193.107 317.513 192.88 316.571 192.721 315.662C191.291 307.456 197.626 307.043 195.312 295.262C194.418 290.712 192.667 281.706 193.485 277.142C193.583 276.595 193.761 275.996 194.241 275.715C194.841 275.362 195.656 275.704 196.058 276.273C196.46 276.841 196.556 277.565 196.639 278.256C196.982 281.094 197.326 283.932 197.669 286.77C197.768 287.586 197.901 288.472 198.498 289.036C199.53 290.009 201.394 289.329 202.029 288.061C202.664 286.793 202.394 285.263 201.932 283.922C201.47 282.581 200.825 281.271 200.738 279.855C200.49 275.837 204.52 273.097 206.948 269.886C211.281 264.157 210.172 255.061 204.59 250.54C194.218 242.138 176.321 252.949 177.525 265.72Z" fill="white" stroke="#263238" stroke-miterlimit="10" stroke-linecap="round" stroke-linejoin="round"/>
<path d="M187.464 259.669C187.464 260.559 186.742 261.281 185.852 261.281C184.962 261.281 184.24 260.559 184.24 259.669C184.24 258.779 184.962 258.057 185.852 258.057C186.742 258.057 187.464 258.779 187.464 259.669Z" fill="#92E3A9" stroke="#263238" stroke-miterlimit="10" stroke-linecap="round" stroke-linejoin="round"/>
<path d="M184.03 268.309C184.03 268.939 183.519 269.451 182.888 269.451C182.257 269.451 181.746 268.94 181.746 268.309C181.746 267.678 182.257 267.167 182.888 267.167C183.519 267.167 184.03 267.678 184.03 268.309Z" fill="#263238" stroke="#263238" stroke-miterlimit="10" stroke-linecap="round" stroke-linejoin="round"/>
<path d="M194.693 254.937C194.693 255.827 193.971 256.549 193.081 256.549C192.191 256.549 191.469 255.827 191.469 254.937C191.469 254.047 192.191 253.325 193.081 253.325C193.972 253.324 194.693 254.046 194.693 254.937Z" fill="#263238" stroke="#263238" stroke-miterlimit="10" stroke-linecap="round" stroke-linejoin="round"/>
<path d="M192.609 265.93C192.609 266.82 191.887 267.542 190.997 267.542C190.107 267.542 189.385 266.82 189.385 265.93C189.385 265.04 190.107 264.318 190.997 264.318C191.887 264.318 192.609 265.04 192.609 265.93Z" fill="#92E3A9" stroke="#263238" stroke-miterlimit="10" stroke-linecap="round" stroke-linejoin="round"/>
<path d="M200.328 262.481C200.328 263.371 199.606 264.093 198.716 264.093C197.826 264.093 197.104 263.371 197.104 262.481C197.104 261.591 197.826 260.869 198.716 260.869C199.606 260.869 200.328 261.591 200.328 262.481Z" fill="#263238" stroke="#263238" stroke-miterlimit="10" stroke-linecap="round" stroke-linejoin="round"/>
<path d="M201.819 255.575C201.819 256.204 201.309 256.713 200.681 256.713C200.052 256.713 199.543 256.203 199.543 255.575C199.543 254.946 200.053 254.437 200.681 254.437C201.309 254.437 201.819 254.947 201.819 255.575Z" fill="#92E3A9" stroke="#263238" stroke-miterlimit="10" stroke-linecap="round" stroke-linejoin="round"/>
<path d="M200.488 274.424C199.658 275.926 199.226 277.43 199.571 279.042" stroke="#263238" stroke-miterlimit="10" stroke-linecap="round" stroke-linejoin="round"/>
<path d="M206.624 256.043C206.624 256.043 209.077 261.716 206.164 266.469C204.817 268.667 203.108 270.603 201.752 272.474" stroke="#263238" stroke-miterlimit="10" stroke-linecap="round" stroke-linejoin="round"/>
<path d="M193.136 120.37C192.648 120.061 181.294 132.74 181.176 133.306C177.801 149.345 176.152 165.747 176.267 182.137C176.284 184.575 176.342 187.028 176.83 189.417C177.884 194.576 180.925 199.185 184.77 202.782C188.615 206.379 193.242 209.039 197.997 211.3C202.022 213.213 206.309 214.891 210.765 214.842C215.474 214.79 219.966 212.803 223.939 210.276C234.223 203.734 242.076 192.764 243.003 180.611C243.313 176.546 242.866 172.465 242.419 168.412C241.922 163.904 241.425 159.395 240.928 154.887C240.417 150.247 239.897 145.568 238.444 141.131C235.082 130.862 227.092 122.864 219.126 115.563C217.395 113.976 215.485 112.325 213.151 112.074C211.259 111.871 209.406 112.631 207.694 113.461C198.805 117.773 193.136 120.37 193.136 120.37Z" fill="white" stroke="#263238" stroke-miterlimit="10" stroke-linecap="round" stroke-linejoin="round"/>
<path d="M187.801 151.157C189.097 148.077 191.654 145.55 194.75 144.292C197.846 143.034 201.441 143.061 204.518 144.365" fill="white"/>
<path d="M187.801 151.157C189.097 148.077 191.654 145.55 194.75 144.292C197.846 143.034 201.441 143.061 204.518 144.365" stroke="#263238" stroke-miterlimit="10" stroke-linecap="round" stroke-linejoin="round"/>
<path d="M222.408 147.072C224.857 146.074 227.386 145.073 230.03 145.063C233.455 145.05 236.838 146.835 238.759 149.671" fill="white"/>
<path d="M222.408 147.072C224.857 146.074 227.386 145.073 230.03 145.063C233.455 145.05 236.838 146.835 238.759 149.671" stroke="#263238" stroke-miterlimit="10" stroke-linecap="round" stroke-linejoin="round"/>
<path d="M189.342 161.378C190.696 158.725 193.426 156.823 196.384 156.472C199.342 156.121 202.441 157.331 204.379 159.593" fill="white"/>
<path d="M189.342 161.378C190.696 158.725 193.426 156.823 196.384 156.472C199.342 156.121 202.441 157.331 204.379 159.593" stroke="#263238" stroke-width="2" stroke-miterlimit="10" stroke-linecap="round" stroke-linejoin="round"/>
<path d="M199.791 123.347C185.289 146.827 176.191 168.064 176.432 195.66C176.472 200.221 176.867 204.9 178.818 209.023C180.769 213.146 184.549 216.648 189.081 217.167C190.048 223.874 185.51 230.713 179.226 233.249C172.942 235.785 165.459 234.345 159.958 230.388C154.457 226.431 150.829 220.236 149.065 213.693C147.301 207.15 147.275 200.251 147.934 193.507C150.691 165.288 165.597 138.728 187.333 120.522C192.514 116.182 198.627 112.109 205.381 112.365C204.046 115.21 202.712 118.056 201.377 120.901L199.791 123.347Z" fill="#263238" stroke="#263238" stroke-miterlimit="10" stroke-linecap="round" stroke-linejoin="round"/>
<path d="M202.47 116.858C202.336 117.179 202.214 117.506 202.111 117.842L202.47 116.858Z" fill="white" stroke="#263238" stroke-miterlimit="10" stroke-linecap="round" stroke-linejoin="round"/>
<path d="M202.471 116.858C202.767 116.146 203.142 115.474 203.576 114.841C203.517 114.667 203.453 114.496 203.396 114.321L202.471 116.858Z" fill="white" stroke="#263238" stroke-miterlimit="10" stroke-linecap="round" stroke-linejoin="round"/>
<path d="M264.972 177.031C261.845 164.284 256.973 152.038 251.933 139.919C249.671 134.479 247.253 128.883 242.942 124.868C240.118 122.237 236.55 120.43 232.77 119.656C231.145 117.399 229.294 115.322 227.119 113.594C223.217 110.493 218.196 108.581 213.245 109.151C209.415 109.592 205.725 111.704 203.574 114.842C209.026 130.965 222.564 144.076 238.751 149.241C241.82 158.987 244.283 168.951 244.874 179.133C245.567 191.065 243.545 203.407 237.387 213.651C236.121 215.756 234.655 217.798 232.678 219.257C230.702 220.716 228.139 221.533 225.747 220.973C230.032 226.626 235.546 231.648 242.307 233.793C249.068 235.938 257.2 234.683 261.972 229.434C265.25 225.828 266.598 220.884 267.369 216.072C269.448 203.111 268.099 189.778 264.972 177.031Z" fill="#263238" stroke="#263238" stroke-miterlimit="10" stroke-linecap="round" stroke-linejoin="round"/>
<path d="M194.799 178.77C199.142 183.349 205.442 186.007 211.753 185.921C218.064 185.835 224.29 183.008 228.506 178.312" fill="white"/>
<path d="M194.799 178.77C199.142 183.349 205.442 186.007 211.753 185.921C218.064 185.835 224.29 183.008 228.506 178.312" stroke="#263238" stroke-miterlimit="10" stroke-linecap="round" stroke-linejoin="round"/>
<path d="M219.937 154.533C217.565 156.388 216.376 159.637 216.989 162.585C217.286 164.015 217.961 165.333 218.536 166.676C219.074 167.932 219.534 169.246 219.612 170.61C219.69 171.974 219.347 173.407 218.441 174.43C217.007 176.049 214.4 176.265 212.476 175.278C210.552 174.291 209.273 172.33 208.641 170.262" fill="white"/>
<path d="M219.937 154.533C217.565 156.388 216.376 159.637 216.989 162.585C217.286 164.015 217.961 165.333 218.536 166.676C219.074 167.932 219.534 169.246 219.612 170.61C219.69 171.974 219.347 173.407 218.441 174.43C217.007 176.049 214.4 176.265 212.476 175.278C210.552 174.291 209.273 172.33 208.641 170.262" stroke="#263238" stroke-miterlimit="10" stroke-linecap="round" stroke-linejoin="round"/>
<path d="M221.559 162.08C222.925 159.731 225.559 158.174 228.276 158.109C230.993 158.044 233.698 159.474 235.175 161.755" fill="white"/>
<path d="M221.559 162.08C222.925 159.731 225.559 158.174 228.276 158.109C230.993 158.044 233.698 159.474 235.175 161.755" stroke="#263238" stroke-width="2" stroke-miterlimit="10" stroke-linecap="round" stroke-linejoin="round"/>
<path d="M215.91 168.058C214.703 169.165 211.219 172.648 214.166 173.911C217.979 175.544 218.759 169.687 215.91 168.058Z" fill="#92E3A9" stroke="#263238" stroke-miterlimit="10" stroke-linecap="round" stroke-linejoin="round"/>
<path d="M197.09 180.935C197.09 180.935 194.119 174.596 198.477 174.596C202.835 174.596 202.519 184.143 202.519 184.143L202.011 183.95C200.197 183.261 198.527 182.239 197.09 180.935Z" fill="#92E3A9" stroke="#263238" stroke-miterlimit="10" stroke-linecap="round" stroke-linejoin="round"/>
<path d="M199.173 181.958L198.76 178.037" stroke="#263238" stroke-miterlimit="10" stroke-linecap="round" stroke-linejoin="round"/>
<path d="M209.758 391.959C206.661 393.804 203.461 395.52 200.174 397.056" stroke="#263238" stroke-miterlimit="10" stroke-linecap="round" stroke-linejoin="round"/>
<path d="M257.931 347.291C257.931 347.291 239.757 372.789 213.254 389.796" stroke="#263238" stroke-miterlimit="10" stroke-linecap="round" stroke-linejoin="round"/>
<path d="M203.519 387.031C199.378 389.888 192.614 394.332 184.918 398.51" stroke="#263238" stroke-miterlimit="10" stroke-linecap="round" stroke-linejoin="round"/>
<path d="M207.802 383.98C207.802 383.98 206.916 384.645 205.34 385.759" stroke="#263238" stroke-miterlimit="10" stroke-linecap="round" stroke-linejoin="round"/>
<path d="M142.863 273.69C142.42 271.623 141.838 269.631 141.08 267.829" stroke="#263238" stroke-miterlimit="10" stroke-linecap="round" stroke-linejoin="round"/>
<path d="M135.516 272.098C140.238 281.179 143.871 295.709 143.871 295.709C143.871 295.709 144.759 286.6 143.529 277.544" stroke="#263238" stroke-miterlimit="10" stroke-linecap="round" stroke-linejoin="round"/>
<path d="M268.104 294.257C268.104 294.257 272.1 280.09 271.737 270.646" stroke="#263238" stroke-miterlimit="10" stroke-linecap="round" stroke-linejoin="round"/>
<path d="M273.58 293.924C275.538 289.826 277.546 283.898 277.546 276.821" stroke="#263238" stroke-miterlimit="10" stroke-linecap="round" stroke-linejoin="round"/>
<path d="M269.904 300.06C269.904 300.06 271.058 298.635 272.47 296.082" stroke="#263238" stroke-miterlimit="10" stroke-linecap="round" stroke-linejoin="round"/>
<path d="M31.1641 459.277H465.359" stroke="#263238" stroke-miterlimit="10" stroke-linecap="round" stroke-linejoin="round"/>
</svg>
