<svg width="28" height="27" viewBox="0 0 28 27" fill="none" xmlns="http://www.w3.org/2000/svg">
<g clip-path="url(#clip0_1065_8015)">
<g clip-path="url(#clip1_1065_8015)">
<g clip-path="url(#clip2_1065_8015)">
<path d="M14.0008 18.6398C16.9307 18.6398 19.3058 16.2647 19.3058 13.3348C19.3058 10.4049 16.9307 8.02979 14.0008 8.02979C11.071 8.02979 8.6958 10.4049 8.6958 13.3348C8.6958 16.2647 11.071 18.6398 14.0008 18.6398Z" stroke="#92E3A9" stroke-width="2.22222" stroke-miterlimit="10"/>
<path d="M19.836 1.13281H8.16487C4.64901 1.13281 1.79883 3.98299 1.79883 7.49886V19.17C1.79883 22.6858 4.64901 25.536 8.16487 25.536H19.836C23.3519 25.536 26.202 22.6858 26.202 19.17V7.49886C26.202 3.98299 23.3519 1.13281 19.836 1.13281Z" stroke="#92E3A9" stroke-width="2.22222" stroke-linecap="round" stroke-linejoin="round"/>
<path d="M20.8967 8.0297C21.7757 8.0297 22.4883 7.31716 22.4883 6.43819C22.4883 5.55922 21.7757 4.84668 20.8967 4.84668C20.0177 4.84668 19.3052 5.55922 19.3052 6.43819C19.3052 7.31716 20.0177 8.0297 20.8967 8.0297Z" fill="#92E3A9"/>
</g>
</g>
</g>
<defs>
<clipPath id="clip0_1065_8015">
<rect width="26.6667" height="26.6667" fill="white" transform="translate(0.666992 0.000244141)"/>
</clipPath>
<clipPath id="clip1_1065_8015">
<rect width="26.6667" height="26.6667" fill="white" transform="translate(0.666992 0.000488281)"/>
</clipPath>
<clipPath id="clip2_1065_8015">
<rect width="26.6667" height="26.6667" fill="white" transform="translate(0.666992 0.000732422)"/>
</clipPath>
</defs>
</svg>
