<svg width="27" height="27" viewBox="0 0 27 27" fill="none" xmlns="http://www.w3.org/2000/svg">
<g clip-path="url(#clip0_1065_8021)">
<g clip-path="url(#clip1_1065_8021)">
<g clip-path="url(#clip2_1065_8021)">
<path d="M24.4759 1.13281H2.19479C1.60881 1.13281 1.13379 1.60783 1.13379 2.19381V24.475C1.13379 25.061 1.60881 25.536 2.19479 25.536H24.4759C25.0619 25.536 25.5369 25.061 25.5369 24.475V2.19381C25.5369 1.60783 25.0619 1.13281 24.4759 1.13281Z" stroke="#92E3A9" stroke-width="2.22222" stroke-linecap="round" stroke-linejoin="round"/>
<path d="M12.2744 11.2129V19.7009" stroke="#92E3A9" stroke-width="2.22222" stroke-linecap="round" stroke-linejoin="round"/>
<path d="M8.03076 11.2129V19.7009" stroke="#92E3A9" stroke-width="2.22222" stroke-linecap="round" stroke-linejoin="round"/>
<path d="M12.2744 14.9263C12.2744 13.9414 12.6656 12.9969 13.3621 12.3006C14.0585 11.6041 15.0031 11.2129 15.988 11.2129C16.9729 11.2129 17.9174 11.6041 18.6137 12.3006C19.3102 12.9969 19.7014 13.9414 19.7014 14.9263V19.7009" stroke="#92E3A9" stroke-width="2.22222" stroke-linecap="round" stroke-linejoin="round"/>
<path d="M8.02999 8.55997C8.90897 8.55997 9.6215 7.84743 9.6215 6.96846C9.6215 6.0895 8.90897 5.37695 8.02999 5.37695C7.15102 5.37695 6.43848 6.0895 6.43848 6.96846C6.43848 7.84743 7.15102 8.55997 8.02999 8.55997Z" fill="#92E3A9"/>
</g>
</g>
</g>
<defs>
<clipPath id="clip0_1065_8021">
<rect width="26.6667" height="26.6667" fill="white" transform="translate(0.000488281 0.000244141)"/>
</clipPath>
<clipPath id="clip1_1065_8021">
<rect width="26.6667" height="26.6667" fill="white" transform="translate(0.000976562 0.000488281)"/>
</clipPath>
<clipPath id="clip2_1065_8021">
<rect width="26.6667" height="26.6667" fill="white" transform="translate(0.00146484 0.000732422)"/>
</clipPath>
</defs>
</svg>
