<svg width="27" height="27" viewBox="0 0 27 27" fill="none" xmlns="http://www.w3.org/2000/svg">
<g clip-path="url(#clip0_1065_8011)">
<g clip-path="url(#clip1_1065_8011)">
<g clip-path="url(#clip2_1065_8011)">
<path d="M12.3664 7.43189C12.3665 6.31604 12.7508 5.23424 13.4547 4.3684C14.1585 3.50254 15.139 2.90542 16.2313 2.67743C17.3236 2.44944 18.4611 2.60447 19.4525 3.11647C20.444 3.62848 21.2289 4.46621 21.6754 5.48886L25.9648 5.4889L22.0477 9.40604C21.7926 13.3459 20.0477 17.041 17.1672 19.7411C14.2867 22.4412 10.4866 23.9438 6.53848 23.9439C2.65322 23.9439 1.6819 22.4869 1.6819 22.4869C1.6819 22.4869 5.56717 21.03 7.50979 18.116C7.50979 18.116 -0.260731 14.2308 1.6819 3.54628C1.6819 3.54628 6.53848 8.40285 12.3647 9.37416L12.3664 7.43189Z" stroke="#92E3A9" stroke-width="2.05128" stroke-linecap="round" stroke-linejoin="round"/>
</g>
</g>
</g>
<defs>
<clipPath id="clip0_1065_8011">
<rect width="26.6667" height="26.6667" fill="white" transform="translate(0.333984 0.000244141)"/>
</clipPath>
<clipPath id="clip1_1065_8011">
<rect width="26.6667" height="26.6667" fill="white" transform="translate(0.333984 0.000488281)"/>
</clipPath>
<clipPath id="clip2_1065_8011">
<rect width="26.6667" height="23.5897" fill="white" transform="translate(0.333984 1.53906)"/>
</clipPath>
</defs>
</svg>
