<svg width="27" height="27" viewBox="0 0 27 27" fill="none" xmlns="http://www.w3.org/2000/svg">
<g clip-path="url(#clip0_1065_8029)">
<g clip-path="url(#clip1_1065_8029)">
<g clip-path="url(#clip2_1065_8029)">
<path d="M17.3418 13.3344L11.6934 9.56885V17.1001L17.3418 13.3344Z" stroke="#92E3A9" stroke-width="1.97531" stroke-linecap="round" stroke-linejoin="round"/>
<path d="M1.33838 13.3339C1.33838 16.8354 1.70013 18.8898 1.97513 19.9456C2.04864 20.234 2.18981 20.5008 2.38693 20.7237C2.58406 20.9466 2.83148 21.1194 3.10868 21.2277C7.04809 22.7416 13.5767 22.7 13.5767 22.7C13.5767 22.7 20.1051 22.7416 24.0445 21.2277C24.3218 21.1194 24.5692 20.9466 24.7663 20.7237C24.9634 20.5008 25.1046 20.234 25.1782 19.9457C25.4531 18.8898 25.8149 16.8354 25.8149 13.3339C25.8149 9.83236 25.4531 7.77795 25.1782 6.72207C25.1047 6.43369 24.9634 6.16698 24.7663 5.94404C24.5692 5.7211 24.3218 5.54834 24.0446 5.44006C20.1052 3.9262 13.5767 3.96776 13.5767 3.96776C13.5767 3.96776 7.04817 3.9262 3.10871 5.44005C2.8315 5.54832 2.5841 5.72108 2.38696 5.94402C2.18984 6.16696 2.04867 6.43367 1.97515 6.72205C1.70015 7.77793 1.33838 9.83236 1.33838 13.3339Z" stroke="#92E3A9" stroke-width="1.97531" stroke-linecap="round" stroke-linejoin="round"/>
</g>
</g>
</g>
<defs>
<clipPath id="clip0_1065_8029">
<rect width="26.6667" height="26.6667" fill="white" transform="translate(0.333984 0.000244141)"/>
</clipPath>
<clipPath id="clip1_1065_8029">
<rect width="26.6667" height="26.6667" fill="white" transform="translate(0.333984 0.000488281)"/>
</clipPath>
<clipPath id="clip2_1065_8029">
<rect width="26.6667" height="20.7407" fill="white" transform="translate(0.333984 2.96362)"/>
</clipPath>
</defs>
</svg>
